<?xml version="1.0" encoding="utf-8" standalone="no"?>
<!DOCTYPE svg PUBLIC "-//W3C//DTD SVG 1.1//EN" "http://www.w3.org/Graphics/SVG/1.1/DTD/svg11.dtd">
<svg width="3000px" height="3000px" version="1.1" xmlns="http://www.w3.org/2000/svg" xmlns:xlink="http://www.w3.org/1999/xlink">
<g id="bg">
<rect x="0" y="0" width="3000px" height="3000px" style="fill:rgb(255,255,255);"/>
</g>
<g id="ideograms">
<path d="M1500.000,170.000 A1330.000,1330.000 40.000 1,1 1479.161,170.163 L1478.848,150.166 A1350.000,1350.000 0.000 1,0 1500.000,150.000 Z" style="stroke-linecap:round;fill:rgb(150,150,150);" />
<text x="1511.3" y="2945.0" font-size="6.5px" font-family="CMUBright-Roman" style="text-anchor:middle;fill:rgb(0,0,0);" transform="rotate(-0.4,1511.3,2945.0)" >1</text>
</g>
<g id="plot0">
<g id="plot0-axis">
</g>
<path d="M1791.923,311.733 A1223.600,1223.600 40.000 0,1 1808.059,315.814 L1828.150,238.584 A1303.400,1303.400 0.000 0,0 1810.962,234.238 Z" style="stroke-width:1.0;stroke:rgb(0,0,0);stroke-linecap:round;fill:rgb(150,150,150);" />
<path d="M1867.071,332.757 A1223.600,1223.600 40.000 0,1 1893.977,341.562 L1919.671,266.011 A1303.400,1303.400 0.000 0,0 1891.011,256.633 Z" style="stroke-width:1.0;stroke:rgb(0,0,0);stroke-linecap:round;fill:rgb(150,150,150);" />
<path d="M2452.949,732.481 A1223.600,1223.600 40.000 0,1 2463.804,746.157 L2526.661,696.993 A1303.400,1303.400 0.000 0,0 2515.098,682.425 Z" style="stroke-width:1.0;stroke:rgb(0,0,0);stroke-linecap:round;fill:rgb(150,150,150);" />
<path d="M2689.202,1211.911 A1223.600,1223.600 40.000 0,1 2691.939,1223.452 L2769.674,1205.416 A1303.400,1303.400 0.000 0,0 2766.759,1193.123 Z" style="stroke-width:1.0;stroke:rgb(0,0,0);stroke-linecap:round;fill:rgb(150,150,150);" />
<path d="M2722.674,1452.394 A1223.600,1223.600 40.000 0,1 2723.459,1518.607 L2803.249,1519.820 A1303.400,1303.400 0.000 0,0 2802.413,1449.290 Z" style="stroke-width:1.0;stroke:rgb(0,0,0);stroke-linecap:round;fill:rgb(150,150,150);" />
<path d="M2723.406,1521.795 A1223.600,1223.600 40.000 0,1 2722.905,1541.232 L2802.660,1543.921 A1303.400,1303.400 0.000 0,0 2803.193,1523.216 Z" style="stroke-width:1.0;stroke:rgb(0,0,0);stroke-linecap:round;fill:rgb(150,150,150);" />
<path d="M2722.762,1545.274 A1223.600,1223.600 40.000 0,1 2721.165,1577.159 L2800.806,1582.191 A1303.400,1303.400 0.000 0,0 2802.507,1548.226 Z" style="stroke-width:1.0;stroke:rgb(0,0,0);stroke-linecap:round;fill:rgb(150,150,150);" />
<path d="M2707.909,1695.328 A1223.600,1223.600 40.000 0,1 2706.077,1706.337 L2784.734,1719.794 A1303.400,1303.400 0.000 0,0 2786.686,1708.066 Z" style="stroke-width:1.0;stroke:rgb(0,0,0);stroke-linecap:round;fill:rgb(150,150,150);" />
<path d="M2581.838,2071.685 A1223.600,1223.600 40.000 0,1 2542.730,2140.243 L2610.734,2181.998 A1303.400,1303.400 0.000 0,0 2652.392,2108.969 Z" style="stroke-width:1.0;stroke:rgb(0,0,0);stroke-linecap:round;fill:rgb(150,150,150);" />
<path d="M2497.598,2208.517 A1223.600,1223.600 40.000 0,1 2482.471,2229.347 L2546.546,2276.913 A1303.400,1303.400 0.000 0,0 2562.658,2254.724 Z" style="stroke-width:1.0;stroke:rgb(0,0,0);stroke-linecap:round;fill:rgb(150,150,150);" />
<path d="M2474.369,2240.137 A1223.600,1223.600 40.000 0,1 2442.868,2279.870 L2504.359,2330.731 A1303.400,1303.400 0.000 0,0 2537.914,2288.407 Z" style="stroke-width:1.0;stroke:rgb(0,0,0);stroke-linecap:round;fill:rgb(150,150,150);" />
<path d="M2442.645,2280.140 A1223.600,1223.600 40.000 0,1 2437.892,2285.848 L2499.058,2337.098 A1303.400,1303.400 0.000 0,0 2504.121,2331.019 Z" style="stroke-width:1.0;stroke:rgb(0,0,0);stroke-linecap:round;fill:rgb(150,150,150);" />
<path d="M2437.892,2285.848 A1223.600,1223.600 40.000 0,1 2425.362,2300.563 L2485.712,2352.774 A1303.400,1303.400 0.000 0,0 2499.058,2337.098 Z" style="stroke-width:1.0;stroke:rgb(0,0,0);stroke-linecap:round;fill:rgb(150,150,150);" />
<path d="M2396.525,2332.731 A1223.600,1223.600 40.000 0,1 2375.554,2354.752 L2432.656,2410.497 A1303.400,1303.400 0.000 0,0 2454.994,2387.039 Z" style="stroke-width:1.0;stroke:rgb(0,0,0);stroke-linecap:round;fill:rgb(150,150,150);" />
<path d="M2375.011,2355.309 A1223.600,1223.600 40.000 0,1 2346.773,2383.273 L2401.998,2440.878 A1303.400,1303.400 0.000 0,0 2432.077,2411.090 Z" style="stroke-width:1.0;stroke:rgb(0,0,0);stroke-linecap:round;fill:rgb(150,150,150);" />
<path d="M2346.745,2383.300 A1223.600,1223.600 40.000 0,1 2325.395,2403.283 L2379.225,2462.192 A1303.400,1303.400 0.000 0,0 2401.968,2440.907 Z" style="stroke-width:1.0;stroke:rgb(0,0,0);stroke-linecap:round;fill:rgb(150,150,150);" />
<path d="M2324.476,2404.122 A1223.600,1223.600 40.000 0,1 2316.456,2411.371 L2369.703,2470.808 A1303.400,1303.400 0.000 0,0 2378.246,2463.086 Z" style="stroke-width:1.0;stroke:rgb(0,0,0);stroke-linecap:round;fill:rgb(150,150,150);" />
<path d="M2286.042,2437.729 A1223.600,1223.600 40.000 0,1 2263.317,2456.318 L2313.099,2518.686 A1303.400,1303.400 0.000 0,0 2337.305,2498.885 Z" style="stroke-width:1.0;stroke:rgb(0,0,0);stroke-linecap:round;fill:rgb(150,150,150);" />
<path d="M2263.013,2456.560 A1223.600,1223.600 40.000 0,1 2251.221,2465.849 L2300.214,2528.839 A1303.400,1303.400 0.000 0,0 2312.775,2518.945 Z" style="stroke-width:1.0;stroke:rgb(0,0,0);stroke-linecap:round;fill:rgb(150,150,150);" />
<path d="M2252.541,2464.821 A1223.600,1223.600 40.000 0,1 2238.418,2475.672 L2286.575,2539.303 A1303.400,1303.400 0.000 0,0 2301.619,2527.744 Z" style="stroke-width:1.0;stroke:rgb(0,0,0);stroke-linecap:round;fill:rgb(150,150,150);" />
<path d="M2237.797,2476.141 A1223.600,1223.600 40.000 0,1 2221.157,2488.498 L2268.189,2552.966 A1303.400,1303.400 0.000 0,0 2285.915,2539.803 Z" style="stroke-width:1.0;stroke:rgb(0,0,0);stroke-linecap:round;fill:rgb(150,150,150);" />
<path d="M2219.082,2490.009 A1223.600,1223.600 40.000 0,1 2187.229,2512.380 L2232.048,2578.405 A1303.400,1303.400 0.000 0,0 2265.979,2554.575 Z" style="stroke-width:1.0;stroke:rgb(0,0,0);stroke-linecap:round;fill:rgb(150,150,150);" />
<path d="M2189.961,2510.520 A1223.600,1223.600 40.000 0,1 2171.965,2522.575 L2215.789,2589.265 A1303.400,1303.400 0.000 0,0 2234.958,2576.424 Z" style="stroke-width:1.0;stroke:rgb(0,0,0);stroke-linecap:round;fill:rgb(150,150,150);" />
<path d="M2153.398,2534.538 A1223.600,1223.600 40.000 0,1 2021.894,2606.718 L2055.930,2678.895 A1303.400,1303.400 0.000 0,0 2196.011,2602.008 Z" style="stroke-width:1.0;stroke:rgb(0,0,0);stroke-linecap:round;fill:rgb(150,150,150);" />
<path d="M2003.321,2615.287 A1223.600,1223.600 40.000 0,1 1983.071,2624.206 L2014.576,2697.524 A1303.400,1303.400 0.000 0,0 2036.146,2688.023 Z" style="stroke-width:1.0;stroke:rgb(0,0,0);stroke-linecap:round;fill:rgb(150,150,150);" />
<path d="M1853.396,2671.456 A1223.600,1223.600 40.000 0,1 1829.796,2678.317 L1851.305,2755.164 A1303.400,1303.400 0.000 0,0 1876.443,2747.855 Z" style="stroke-width:1.0;stroke:rgb(0,0,0);stroke-linecap:round;fill:rgb(150,150,150);" />
<path d="M1829.759,2678.328 A1223.600,1223.600 40.000 0,1 1794.265,2687.689 L1813.456,2765.147 A1303.400,1303.400 0.000 0,0 1851.265,2755.175 Z" style="stroke-width:1.0;stroke:rgb(0,0,0);stroke-linecap:round;fill:rgb(150,150,150);" />
<path d="M1792.830,2688.044 A1223.600,1223.600 40.000 0,1 1776.189,2692.022 L1794.201,2769.763 A1303.400,1303.400 0.000 0,0 1811.928,2765.525 Z" style="stroke-width:1.0;stroke:rgb(0,0,0);stroke-linecap:round;fill:rgb(150,150,150);" />
<path d="M1774.521,2692.407 A1223.600,1223.600 40.000 0,1 1677.592,2710.644 L1689.174,2789.599 A1303.400,1303.400 0.000 0,0 1792.425,2770.173 Z" style="stroke-width:1.0;stroke:rgb(0,0,0);stroke-linecap:round;fill:rgb(150,150,150);" />
<path d="M1662.496,2712.762 A1223.600,1223.600 40.000 0,1 1635.439,2716.081 L1644.272,2795.391 A1303.400,1303.400 0.000 0,0 1673.093,2791.855 Z" style="stroke-width:1.0;stroke:rgb(0,0,0);stroke-linecap:round;fill:rgb(150,150,150);" />
<path d="M1635.439,2716.081 A1223.600,1223.600 40.000 0,1 1610.058,2718.640 L1617.236,2798.117 A1303.400,1303.400 0.000 0,0 1644.272,2795.391 Z" style="stroke-width:1.0;stroke:rgb(0,0,0);stroke-linecap:round;fill:rgb(150,150,150);" />
<path d="M1608.819,2718.752 A1223.600,1223.600 40.000 0,1 1517.305,2723.478 L1518.433,2803.270 A1303.400,1303.400 0.000 0,0 1615.916,2798.235 Z" style="stroke-width:1.0;stroke:rgb(0,0,0);stroke-linecap:round;fill:rgb(150,150,150);" />
<path d="M1515.749,2723.499 A1223.600,1223.600 40.000 0,1 1441.381,2722.195 L1437.558,2801.903 A1303.400,1303.400 0.000 0,0 1516.777,2803.292 Z" style="stroke-width:1.0;stroke:rgb(0,0,0);stroke-linecap:round;fill:rgb(150,150,150);" />
<path d="M1440.332,2722.144 A1223.600,1223.600 40.000 0,1 1421.502,2721.079 L1416.383,2800.715 A1303.400,1303.400 0.000 0,0 1436.441,2801.849 Z" style="stroke-width:1.0;stroke:rgb(0,0,0);stroke-linecap:round;fill:rgb(150,150,150);" />
<path d="M1385.877,2718.266 A1223.600,1223.600 40.000 0,1 1361.084,2715.689 L1352.024,2794.973 A1303.400,1303.400 0.000 0,0 1378.434,2797.718 Z" style="stroke-width:1.0;stroke:rgb(0,0,0);stroke-linecap:round;fill:rgb(150,150,150);" />
<path d="M1361.200,2715.702 A1223.600,1223.600 40.000 0,1 1332.419,2712.070 L1321.490,2791.118 A1303.400,1303.400 0.000 0,0 1352.148,2794.987 Z" style="stroke-width:1.0;stroke:rgb(0,0,0);stroke-linecap:round;fill:rgb(150,150,150);" />
<path d="M1005.557,2619.251 A1223.600,1223.600 40.000 0,1 988.365,2611.497 L954.997,2683.986 A1303.400,1303.400 0.000 0,0 973.311,2692.246 Z" style="stroke-width:1.0;stroke:rgb(0,0,0);stroke-linecap:round;fill:rgb(150,150,150);" />
<path d="M873.983,2551.332 A1223.600,1223.600 40.000 0,1 844.894,2533.457 L802.170,2600.856 A1303.400,1303.400 0.000 0,0 833.156,2619.897 Z" style="stroke-width:1.0;stroke:rgb(0,0,0);stroke-linecap:round;fill:rgb(150,150,150);" />
<path d="M750.284,2467.018 A1223.600,1223.600 40.000 0,1 721.254,2443.797 L670.466,2505.348 A1303.400,1303.400 0.000 0,0 701.390,2530.084 Z" style="stroke-width:1.0;stroke:rgb(0,0,0);stroke-linecap:round;fill:rgb(150,150,150);" />
<path d="M624.311,2354.614 A1223.600,1223.600 40.000 0,1 585.148,2312.553 L525.484,2365.546 A1303.400,1303.400 0.000 0,0 567.200,2410.350 Z" style="stroke-width:1.0;stroke:rgb(0,0,0);stroke-linecap:round;fill:rgb(150,150,150);" />
<path d="M570.807,2296.114 A1223.600,1223.600 40.000 0,1 539.199,2257.666 L476.538,2307.079 A1303.400,1303.400 0.000 0,0 510.207,2348.034 Z" style="stroke-width:1.0;stroke:rgb(0,0,0);stroke-linecap:round;fill:rgb(150,150,150);" />
<path d="M540.887,2259.802 A1223.600,1223.600 40.000 0,1 527.446,2242.520 L464.019,2290.945 A1303.400,1303.400 0.000 0,0 478.336,2309.354 Z" style="stroke-width:1.0;stroke:rgb(0,0,0);stroke-linecap:round;fill:rgb(150,150,150);" />
<path d="M526.974,2241.902 A1223.600,1223.600 40.000 0,1 500.560,2205.915 L435.379,2251.953 A1303.400,1303.400 0.000 0,0 463.516,2290.286 Z" style="stroke-width:1.0;stroke:rgb(0,0,0);stroke-linecap:round;fill:rgb(150,150,150);" />
<path d="M500.627,2206.010 A1223.600,1223.600 40.000 0,1 428.546,2090.917 L358.668,2129.455 A1303.400,1303.400 0.000 0,0 435.451,2252.055 Z" style="stroke-width:1.0;stroke:rgb(0,0,0);stroke-linecap:round;fill:rgb(150,150,150);" />
<path d="M320.864,1826.856 A1223.600,1223.600 40.000 0,1 316.438,1810.449 L239.249,1830.695 A1303.400,1303.400 0.000 0,0 243.964,1848.173 Z" style="stroke-width:1.0;stroke:rgb(0,0,0);stroke-linecap:round;fill:rgb(150,150,150);" />
<path d="M308.070,1776.587 A1223.600,1223.600 40.000 0,1 303.458,1755.901 L225.423,1772.590 A1303.400,1303.400 0.000 0,0 230.336,1794.625 Z" style="stroke-width:1.0;stroke:rgb(0,0,0);stroke-linecap:round;fill:rgb(150,150,150);" />
<path d="M303.418,1755.711 A1223.600,1223.600 40.000 0,1 299.461,1736.436 L221.165,1751.856 A1303.400,1303.400 0.000 0,0 225.380,1772.388 Z" style="stroke-width:1.0;stroke:rgb(0,0,0);stroke-linecap:round;fill:rgb(150,150,150);" />
<path d="M299.131,1734.757 A1223.600,1223.600 40.000 0,1 295.347,1714.497 L216.783,1728.486 A1303.400,1303.400 0.000 0,0 220.814,1750.067 Z" style="stroke-width:1.0;stroke:rgb(0,0,0);stroke-linecap:round;fill:rgb(150,150,150);" />
<path d="M295.035,1712.736 A1223.600,1223.600 40.000 0,1 290.684,1686.417 L211.815,1698.575 A1303.400,1303.400 0.000 0,0 216.450,1726.610 Z" style="stroke-width:1.0;stroke:rgb(0,0,0);stroke-linecap:round;fill:rgb(150,150,150);" />
<path d="M290.377,1684.418 A1223.600,1223.600 40.000 0,1 286.051,1653.376 L206.880,1663.379 A1303.400,1303.400 0.000 0,0 211.489,1696.446 Z" style="stroke-width:1.0;stroke:rgb(0,0,0);stroke-linecap:round;fill:rgb(150,150,150);" />
<path d="M285.684,1650.444 A1223.600,1223.600 40.000 0,1 284.848,1643.533 L205.599,1652.894 A1303.400,1303.400 0.000 0,0 206.489,1660.255 Z" style="stroke-width:1.0;stroke:rgb(0,0,0);stroke-linecap:round;fill:rgb(150,150,150);" />
<path d="M277.426,1550.093 A1223.600,1223.600 40.000 0,1 276.887,1534.509 L197.118,1536.759 A1303.400,1303.400 0.000 0,0 197.693,1553.360 Z" style="stroke-width:1.0;stroke:rgb(0,0,0);stroke-linecap:round;fill:rgb(150,150,150);" />
<path d="M276.846,1533.031 A1223.600,1223.600 40.000 0,1 276.442,1510.092 L196.644,1510.750 A1303.400,1303.400 0.000 0,0 197.075,1535.186 Z" style="stroke-width:1.0;stroke:rgb(0,0,0);stroke-linecap:round;fill:rgb(150,150,150);" />
<path d="M276.435,1509.314 A1223.600,1223.600 40.000 0,1 276.400,1500.603 L196.600,1500.643 A1303.400,1303.400 0.000 0,0 196.638,1509.922 Z" style="stroke-width:1.0;stroke:rgb(0,0,0);stroke-linecap:round;fill:rgb(150,150,150);" />
<path d="M277.239,1454.688 A1223.600,1223.600 40.000 0,1 277.870,1440.041 L198.166,1436.131 A1303.400,1303.400 0.000 0,0 197.494,1451.733 Z" style="stroke-width:1.0;stroke:rgb(0,0,0);stroke-linecap:round;fill:rgb(150,150,150);" />
<path d="M277.851,1440.429 A1223.600,1223.600 40.000 0,1 279.539,1412.404 L199.944,1406.691 A1303.400,1303.400 0.000 0,0 198.146,1436.544 Z" style="stroke-width:1.0;stroke:rgb(0,0,0);stroke-linecap:round;fill:rgb(150,150,150);" />
<path d="M282.851,1374.518 A1223.600,1223.600 40.000 0,1 285.531,1350.793 L206.327,1341.062 A1303.400,1303.400 0.000 0,0 203.472,1366.335 Z" style="stroke-width:1.0;stroke:rgb(0,0,0);stroke-linecap:round;fill:rgb(150,150,150);" />
<path d="M288.428,1328.857 A1223.600,1223.600 40.000 0,1 299.280,1264.481 L220.973,1249.121 A1303.400,1303.400 0.000 0,0 209.412,1317.695 Z" style="stroke-width:1.0;stroke:rgb(0,0,0);stroke-linecap:round;fill:rgb(150,150,150);" />
<path d="M299.588,1262.916 A1223.600,1223.600 40.000 0,1 307.763,1224.741 L230.008,1206.789 A1303.400,1303.400 0.000 0,0 221.301,1247.455 Z" style="stroke-width:1.0;stroke:rgb(0,0,0);stroke-linecap:round;fill:rgb(150,150,150);" />
<path d="M345.699,1094.061 A1223.600,1223.600 40.000 0,1 358.353,1059.727 L283.898,1031.014 A1303.400,1303.400 0.000 0,0 270.419,1067.587 Z" style="stroke-width:1.0;stroke:rgb(0,0,0);stroke-linecap:round;fill:rgb(150,150,150);" />
<path d="M369.379,1032.140 A1223.600,1223.600 40.000 0,1 383.397,999.606 L310.575,966.972 A1303.400,1303.400 0.000 0,0 295.643,1001.627 Z" style="stroke-width:1.0;stroke:rgb(0,0,0);stroke-linecap:round;fill:rgb(150,150,150);" />
<path d="M384.401,997.372 A1223.600,1223.600 40.000 0,1 409.814,944.399 L338.715,908.164 A1303.400,1303.400 0.000 0,0 311.644,964.591 Z" style="stroke-width:1.0;stroke:rgb(0,0,0);stroke-linecap:round;fill:rgb(150,150,150);" />
<path d="M413.833,936.583 A1223.600,1223.600 40.000 0,1 445.547,879.253 L376.779,838.770 A1303.400,1303.400 0.000 0,0 342.996,899.839 Z" style="stroke-width:1.0;stroke:rgb(0,0,0);stroke-linecap:round;fill:rgb(150,150,150);" />
<path d="M447.605,875.771 A1223.600,1223.600 40.000 0,1 466.991,844.188 L399.621,801.418 A1303.400,1303.400 0.000 0,0 378.970,835.061 Z" style="stroke-width:1.0;stroke:rgb(0,0,0);stroke-linecap:round;fill:rgb(150,150,150);" />
<path d="M468.787,841.367 A1223.600,1223.600 40.000 0,1 479.512,824.870 L412.958,780.840 A1303.400,1303.400 0.000 0,0 401.534,798.413 Z" style="stroke-width:1.0;stroke:rgb(0,0,0);stroke-linecap:round;fill:rgb(150,150,150);" />
<path d="M480.887,822.796 A1223.600,1223.600 40.000 0,1 492.835,805.150 L427.150,759.834 A1303.400,1303.400 0.000 0,0 414.423,778.630 Z" style="stroke-width:1.0;stroke:rgb(0,0,0);stroke-linecap:round;fill:rgb(150,150,150);" />
<path d="M494.051,803.391 A1223.600,1223.600 40.000 0,1 512.154,777.949 L447.730,730.858 A1303.400,1303.400 0.000 0,0 428.446,757.960 Z" style="stroke-width:1.0;stroke:rgb(0,0,0);stroke-linecap:round;fill:rgb(150,150,150);" />
<path d="M514.293,775.032 A1223.600,1223.600 40.000 0,1 529.834,754.363 L466.562,705.735 A1303.400,1303.400 0.000 0,0 450.008,727.752 Z" style="stroke-width:1.0;stroke:rgb(0,0,0);stroke-linecap:round;fill:rgb(150,150,150);" />
<path d="M548.491,730.696 A1223.600,1223.600 40.000 0,1 555.919,721.599 L494.348,670.834 A1303.400,1303.400 0.000 0,0 486.436,680.524 Z" style="stroke-width:1.0;stroke:rgb(0,0,0);stroke-linecap:round;fill:rgb(150,150,150);" />
<path d="M557.554,719.621 A1223.600,1223.600 40.000 0,1 578.925,694.508 L518.855,641.976 A1303.400,1303.400 0.000 0,0 496.090,668.726 Z" style="stroke-width:1.0;stroke:rgb(0,0,0);stroke-linecap:round;fill:rgb(150,150,150);" />
<path d="M581.541,691.526 A1223.600,1223.600 40.000 0,1 608.600,661.786 L550.465,607.120 A1303.400,1303.400 0.000 0,0 521.641,638.800 Z" style="stroke-width:1.0;stroke:rgb(0,0,0);stroke-linecap:round;fill:rgb(150,150,150);" />
<path d="M612.017,658.167 A1223.600,1223.600 40.000 0,1 624.120,645.582 L566.997,589.859 A1303.400,1303.400 0.000 0,0 554.105,603.265 Z" style="stroke-width:1.0;stroke:rgb(0,0,0);stroke-linecap:round;fill:rgb(150,150,150);" />
<path d="M678.228,593.420 A1223.600,1223.600 40.000 0,1 709.081,566.381 L657.499,505.493 A1303.400,1303.400 0.000 0,0 624.634,534.295 Z" style="stroke-width:1.0;stroke:rgb(0,0,0);stroke-linecap:round;fill:rgb(150,150,150);" />
<path d="M711.130,564.649 A1223.600,1223.600 40.000 0,1 783.531,508.098 L736.805,443.409 A1303.400,1303.400 0.000 0,0 659.682,503.648 Z" style="stroke-width:1.0;stroke:rgb(0,0,0);stroke-linecap:round;fill:rgb(150,150,150);" />
<path d="M823.394,480.490 A1223.600,1223.600 40.000 0,1 858.547,458.014 L816.713,390.058 A1303.400,1303.400 0.000 0,0 779.267,414.000 Z" style="stroke-width:1.0;stroke:rgb(0,0,0);stroke-linecap:round;fill:rgb(150,150,150);" />
<path d="M864.485,454.382 A1223.600,1223.600 40.000 0,1 883.597,443.002 L843.397,374.068 A1303.400,1303.400 0.000 0,0 823.038,386.189 Z" style="stroke-width:1.0;stroke:rgb(0,0,0);stroke-linecap:round;fill:rgb(150,150,150);" />
<path d="M892.554,437.829 A1223.600,1223.600 40.000 0,1 1091.731,346.521 L1065.105,271.294 A1303.400,1303.400 0.000 0,0 852.938,368.557 Z" style="stroke-width:1.0;stroke:rgb(0,0,0);stroke-linecap:round;fill:rgb(150,150,150);" />
<path d="M1173.350,320.807 A1223.600,1223.600 40.000 0,1 1190.661,316.148 L1170.487,238.940 A1303.400,1303.400 0.000 0,0 1152.047,243.903 Z" style="stroke-width:1.0;stroke:rgb(0,0,0);stroke-linecap:round;fill:rgb(150,150,150);" />
<path d="M1218.964,309.111 A1223.600,1223.600 40.000 0,1 1239.062,304.547 L1222.045,226.582 A1303.400,1303.400 0.000 0,0 1200.636,231.445 Z" style="stroke-width:1.0;stroke:rgb(0,0,0);stroke-linecap:round;fill:rgb(150,150,150);" />
<path d="M1243.395,303.609 A1223.600,1223.600 40.000 0,1 1293.528,293.946 L1280.062,215.290 A1303.400,1303.400 0.000 0,0 1226.660,225.584 Z" style="stroke-width:1.0;stroke:rgb(0,0,0);stroke-linecap:round;fill:rgb(150,150,150);" />
<path d="M1302.579,292.431 A1223.600,1223.600 40.000 0,1 1370.630,283.258 L1362.193,203.906 A1303.400,1303.400 0.000 0,0 1289.704,213.677 Z" style="stroke-width:1.0;stroke:rgb(0,0,0);stroke-linecap:round;fill:rgb(150,150,150);" />
<path d="M1374.111,282.893 A1223.600,1223.600 40.000 0,1 1414.749,279.373 L1409.190,199.767 A1303.400,1303.400 0.000 0,0 1365.900,203.517 Z" style="stroke-width:1.0;stroke:rgb(0,0,0);stroke-linecap:round;fill:rgb(150,150,150);" />
<path d="M1419.677,279.039 A1223.600,1223.600 40.000 0,1 1448.411,277.488 L1445.046,197.759 A1303.400,1303.400 0.000 0,0 1414.438,199.411 Z" style="stroke-width:1.0;stroke:rgb(0,0,0);stroke-linecap:round;fill:rgb(150,150,150);" />
</g>
<g id="plot1">
<g id="plot1-axis">
</g>
<path d="M1529.644,383.193 A1117.200,1117.200 40.000 0,1 1555.898,384.199 L1559.891,304.499 A1197.000,1197.000 0.000 0,0 1531.761,303.421 Z" style="stroke-width:1.0;stroke:rgb(0,0,0);stroke-linecap:round;fill:rgb(150,150,150);" />
<path d="M1560.401,384.434 A1117.200,1117.200 40.000 0,1 1597.552,387.067 L1604.520,307.572 A1197.000,1197.000 0.000 0,0 1564.716,304.751 Z" style="stroke-width:1.0;stroke:rgb(0,0,0);stroke-linecap:round;fill:rgb(150,150,150);" />
<path d="M1600.735,387.351 A1117.200,1117.200 40.000 0,1 1662.992,394.754 L1674.634,315.807 A1197.000,1197.000 0.000 0,0 1607.930,307.876 Z" style="stroke-width:1.0;stroke:rgb(0,0,0);stroke-linecap:round;fill:rgb(150,150,150);" />
<path d="M1671.277,396.007 A1117.200,1117.200 40.000 0,1 1717.182,404.113 L1732.695,325.836 A1197.000,1197.000 0.000 0,0 1683.511,317.151 Z" style="stroke-width:1.0;stroke:rgb(0,0,0);stroke-linecap:round;fill:rgb(150,150,150);" />
<path d="M1865.192,444.173 A1117.200,1117.200 40.000 0,1 1877.916,448.660 L1904.910,373.565 A1197.000,1197.000 0.000 0,0 1891.278,368.757 Z" style="stroke-width:1.0;stroke:rgb(0,0,0);stroke-linecap:round;fill:rgb(150,150,150);" />
<path d="M1879.921,449.383 A1117.200,1117.200 40.000 0,1 1945.302,475.382 L1977.109,402.195 A1197.000,1197.000 0.000 0,0 1907.058,374.339 Z" style="stroke-width:1.0;stroke:rgb(0,0,0);stroke-linecap:round;fill:rgb(150,150,150);" />
<path d="M1949.661,477.288 A1117.200,1117.200 40.000 0,1 1955.958,480.079 L1988.527,407.228 A1197.000,1197.000 0.000 0,0 1981.780,404.237 Z" style="stroke-width:1.0;stroke:rgb(0,0,0);stroke-linecap:round;fill:rgb(150,150,150);" />
<path d="M1960.718,482.221 A1117.200,1117.200 40.000 0,1 2021.047,511.746 L2058.265,441.157 A1197.000,1197.000 0.000 0,0 1993.627,409.522 Z" style="stroke-width:1.0;stroke:rgb(0,0,0);stroke-linecap:round;fill:rgb(150,150,150);" />
<path d="M2041.598,522.858 A1117.200,1117.200 40.000 0,1 2055.579,530.738 L2095.263,461.505 A1197.000,1197.000 0.000 0,0 2080.284,453.062 Z" style="stroke-width:1.0;stroke:rgb(0,0,0);stroke-linecap:round;fill:rgb(150,150,150);" />
<path d="M2062.495,534.736 A1117.200,1117.200 40.000 0,1 2076.759,543.190 L2117.956,474.847 A1197.000,1197.000 0.000 0,0 2102.674,465.788 Z" style="stroke-width:1.0;stroke:rgb(0,0,0);stroke-linecap:round;fill:rgb(150,150,150);" />
<path d="M2081.132,545.840 A1117.200,1117.200 40.000 0,1 2099.819,557.475 L2142.663,490.152 A1197.000,1197.000 0.000 0,0 2122.641,477.686 Z" style="stroke-width:1.0;stroke:rgb(0,0,0);stroke-linecap:round;fill:rgb(150,150,150);" />
<path d="M2101.166,558.334 A1117.200,1117.200 40.000 0,1 2129.319,576.911 L2174.270,510.976 A1197.000,1197.000 0.000 0,0 2144.107,491.072 Z" style="stroke-width:1.0;stroke:rgb(0,0,0);stroke-linecap:round;fill:rgb(150,150,150);" />
<path d="M2144.864,587.703 A1117.200,1117.200 40.000 0,1 2163.400,601.092 L2210.786,536.884 A1197.000,1197.000 0.000 0,0 2190.926,522.539 Z" style="stroke-width:1.0;stroke:rgb(0,0,0);stroke-linecap:round;fill:rgb(150,150,150);" />
<path d="M2164.713,602.062 A1117.200,1117.200 40.000 0,1 2174.745,609.576 L2222.941,545.974 A1197.000,1197.000 0.000 0,0 2212.193,537.924 Z" style="stroke-width:1.0;stroke:rgb(0,0,0);stroke-linecap:round;fill:rgb(150,150,150);" />
<path d="M2178.333,612.307 A1117.200,1117.200 40.000 0,1 2193.272,623.924 L2242.792,561.347 A1197.000,1197.000 0.000 0,0 2226.786,548.900 Z" style="stroke-width:1.0;stroke:rgb(0,0,0);stroke-linecap:round;fill:rgb(150,150,150);" />
<path d="M2194.413,624.828 A1117.200,1117.200 40.000 0,1 2230.721,654.907 L2282.915,594.543 A1197.000,1197.000 0.000 0,0 2244.014,562.316 Z" style="stroke-width:1.0;stroke:rgb(0,0,0);stroke-linecap:round;fill:rgb(150,150,150);" />
<path d="M2232.438,656.395 A1117.200,1117.200 40.000 0,1 2250.023,671.990 L2303.597,612.846 A1197.000,1197.000 0.000 0,0 2284.755,596.137 Z" style="stroke-width:1.0;stroke:rgb(0,0,0);stroke-linecap:round;fill:rgb(150,150,150);" />
<path d="M2252.782,674.497 A1117.200,1117.200 40.000 0,1 2274.907,695.230 L2330.258,637.747 A1197.000,1197.000 0.000 0,0 2306.553,615.533 Z" style="stroke-width:1.0;stroke:rgb(0,0,0);stroke-linecap:round;fill:rgb(150,150,150);" />
<path d="M2280.845,700.990 A1117.200,1117.200 40.000 0,1 2308.957,729.465 L2366.739,674.426 A1197.000,1197.000 0.000 0,0 2336.620,643.918 Z" style="stroke-width:1.0;stroke:rgb(0,0,0);stroke-linecap:round;fill:rgb(150,150,150);" />
<path d="M2317.357,738.381 A1117.200,1117.200 40.000 0,1 2347.516,772.090 L2408.052,720.096 A1197.000,1197.000 0.000 0,0 2375.739,683.979 Z" style="stroke-width:1.0;stroke:rgb(0,0,0);stroke-linecap:round;fill:rgb(150,150,150);" />
<path d="M2348.163,772.844 A1117.200,1117.200 40.000 0,1 2367.047,795.468 L2428.979,745.144 A1197.000,1197.000 0.000 0,0 2408.746,720.905 Z" style="stroke-width:1.0;stroke:rgb(0,0,0);stroke-linecap:round;fill:rgb(150,150,150);" />
<path d="M2381.371,813.472 A1117.200,1117.200 40.000 0,1 2395.555,832.080 L2459.523,784.372 A1197.000,1197.000 0.000 0,0 2444.326,764.434 Z" style="stroke-width:1.0;stroke:rgb(0,0,0);stroke-linecap:round;fill:rgb(150,150,150);" />
<path d="M2395.810,832.422 A1117.200,1117.200 40.000 0,1 2405.369,845.445 L2470.039,798.691 A1197.000,1197.000 0.000 0,0 2459.796,784.738 Z" style="stroke-width:1.0;stroke:rgb(0,0,0);stroke-linecap:round;fill:rgb(150,150,150);" />
<path d="M2405.723,845.934 A1117.200,1117.200 40.000 0,1 2434.853,888.293 L2501.628,844.599 A1197.000,1197.000 0.000 0,0 2470.417,799.215 Z" style="stroke-width:1.0;stroke:rgb(0,0,0);stroke-linecap:round;fill:rgb(150,150,150);" />
<path d="M2435.067,888.619 A1117.200,1117.200 40.000 0,1 2453.263,917.398 L2521.353,875.783 A1197.000,1197.000 0.000 0,0 2501.857,844.949 Z" style="stroke-width:1.0;stroke:rgb(0,0,0);stroke-linecap:round;fill:rgb(150,150,150);" />
<path d="M2453.837,918.337 A1117.200,1117.200 40.000 0,1 2471.066,947.581 L2540.428,908.123 A1197.000,1197.000 0.000 0,0 2521.968,876.790 Z" style="stroke-width:1.0;stroke:rgb(0,0,0);stroke-linecap:round;fill:rgb(150,150,150);" />
<path d="M2471.592,948.508 A1117.200,1117.200 40.000 0,1 2475.546,955.531 L2545.228,916.641 A1197.000,1197.000 0.000 0,0 2540.992,909.115 Z" style="stroke-width:1.0;stroke:rgb(0,0,0);stroke-linecap:round;fill:rgb(150,150,150);" />
<path d="M2475.840,956.058 A1117.200,1117.200 40.000 0,1 2479.687,963.019 L2549.665,924.663 A1197.000,1197.000 0.000 0,0 2545.543,917.205 Z" style="stroke-width:1.0;stroke:rgb(0,0,0);stroke-linecap:round;fill:rgb(150,150,150);" />
<path d="M2482.270,967.758 A1117.200,1117.200 40.000 0,1 2485.533,973.824 L2555.928,936.240 A1197.000,1197.000 0.000 0,0 2552.432,929.741 Z" style="stroke-width:1.0;stroke:rgb(0,0,0);stroke-linecap:round;fill:rgb(150,150,150);" />
<path d="M2486.484,975.610 A1117.200,1117.200 40.000 0,1 2496.914,995.719 L2568.122,959.699 A1197.000,1197.000 0.000 0,0 2556.948,938.154 Z" style="stroke-width:1.0;stroke:rgb(0,0,0);stroke-linecap:round;fill:rgb(150,150,150);" />
<path d="M2496.705,995.307 A1117.200,1117.200 40.000 0,1 2516.980,1037.520 L2589.621,1004.485 A1197.000,1197.000 0.000 0,0 2567.898,959.258 Z" style="stroke-width:1.0;stroke:rgb(0,0,0);stroke-linecap:round;fill:rgb(150,150,150);" />
<path d="M2517.317,1038.263 A1117.200,1117.200 40.000 0,1 2532.347,1072.921 L2606.086,1042.415 A1197.000,1197.000 0.000 0,0 2589.983,1005.282 Z" style="stroke-width:1.0;stroke:rgb(0,0,0);stroke-linecap:round;fill:rgb(150,150,150);" />
<path d="M2532.943,1074.365 A1117.200,1117.200 40.000 0,1 2556.827,1137.711 L2632.314,1111.834 A1197.000,1197.000 0.000 0,0 2606.724,1043.963 Z" style="stroke-width:1.0;stroke:rgb(0,0,0);stroke-linecap:round;fill:rgb(150,150,150);" />
<path d="M2557.321,1139.156 A1117.200,1117.200 40.000 0,1 2569.472,1176.944 L2645.863,1153.868 A1197.000,1197.000 0.000 0,0 2632.844,1113.381 Z" style="stroke-width:1.0;stroke:rgb(0,0,0);stroke-linecap:round;fill:rgb(150,150,150);" />
<path d="M2569.657,1177.556 A1117.200,1117.200 40.000 0,1 2571.895,1185.076 L2648.459,1162.582 A1197.000,1197.000 0.000 0,0 2646.061,1154.524 Z" style="stroke-width:1.0;stroke:rgb(0,0,0);stroke-linecap:round;fill:rgb(150,150,150);" />
<path d="M2572.394,1186.780 A1117.200,1117.200 40.000 0,1 2573.865,1191.862 L2650.570,1169.852 A1197.000,1197.000 0.000 0,0 2648.994,1164.407 Z" style="stroke-width:1.0;stroke:rgb(0,0,0);stroke-linecap:round;fill:rgb(150,150,150);" />
<path d="M2574.577,1194.354 A1117.200,1117.200 40.000 0,1 2579.078,1210.644 L2656.155,1189.976 A1197.000,1197.000 0.000 0,0 2651.333,1172.522 Z" style="stroke-width:1.0;stroke:rgb(0,0,0);stroke-linecap:round;fill:rgb(150,150,150);" />
<path d="M2579.142,1210.884 A1117.200,1117.200 40.000 0,1 2585.264,1234.789 L2662.783,1215.845 A1197.000,1197.000 0.000 0,0 2656.224,1190.233 Z" style="stroke-width:1.0;stroke:rgb(0,0,0);stroke-linecap:round;fill:rgb(150,150,150);" />
<path d="M2588.268,1247.396 A1117.200,1117.200 40.000 0,1 2598.678,1297.412 L2677.155,1282.942 A1197.000,1197.000 0.000 0,0 2666.001,1229.352 Z" style="stroke-width:1.0;stroke:rgb(0,0,0);stroke-linecap:round;fill:rgb(150,150,150);" />
<path d="M2598.659,1297.307 A1117.200,1117.200 40.000 0,1 2610.187,1375.015 L2689.486,1366.088 A1197.000,1197.000 0.000 0,0 2677.135,1282.829 Z" style="stroke-width:1.0;stroke:rgb(0,0,0);stroke-linecap:round;fill:rgb(150,150,150);" />
<path d="M2610.671,1379.391 A1117.200,1117.200 40.000 0,1 2612.318,1395.676 L2691.770,1388.224 A1197.000,1197.000 0.000 0,0 2690.004,1370.776 Z" style="stroke-width:1.0;stroke:rgb(0,0,0);stroke-linecap:round;fill:rgb(150,150,150);" />
<path d="M2612.853,1401.546 A1117.200,1117.200 40.000 0,1 2614.950,1429.125 L2694.589,1424.062 A1197.000,1197.000 0.000 0,0 2692.343,1394.513 Z" style="stroke-width:1.0;stroke:rgb(0,0,0);stroke-linecap:round;fill:rgb(150,150,150);" />
<path d="M2614.961,1570.698 A1117.200,1117.200 40.000 0,1 2603.054,1677.221 L2681.844,1689.880 A1197.000,1197.000 0.000 0,0 2694.601,1575.748 Z" style="stroke-width:1.0;stroke:rgb(0,0,0);stroke-linecap:round;fill:rgb(150,150,150);" />
<path d="M2601.231,1688.220 A1117.200,1117.200 40.000 0,1 2598.820,1701.819 L2677.307,1716.235 A1197.000,1197.000 0.000 0,0 2679.890,1701.664 Z" style="stroke-width:1.0;stroke:rgb(0,0,0);stroke-linecap:round;fill:rgb(150,150,150);" />
<path d="M2598.903,1701.365 A1117.200,1117.200 40.000 0,1 2583.919,1770.657 L2661.342,1789.990 A1197.000,1197.000 0.000 0,0 2677.396,1715.748 Z" style="stroke-width:1.0;stroke:rgb(0,0,0);stroke-linecap:round;fill:rgb(150,150,150);" />
<path d="M2583.514,1772.276 A1117.200,1117.200 40.000 0,1 2580.635,1783.487 L2657.823,1803.736 A1197.000,1197.000 0.000 0,0 2660.907,1791.724 Z" style="stroke-width:1.0;stroke:rgb(0,0,0);stroke-linecap:round;fill:rgb(150,150,150);" />
<path d="M2580.409,1784.345 A1117.200,1117.200 40.000 0,1 2579.436,1788.018 L2656.538,1808.590 A1197.000,1197.000 0.000 0,0 2657.581,1804.656 Z" style="stroke-width:1.0;stroke:rgb(0,0,0);stroke-linecap:round;fill:rgb(150,150,150);" />
<path d="M2579.298,1788.532 A1117.200,1117.200 40.000 0,1 2570.219,1820.574 L2646.663,1843.472 A1197.000,1197.000 0.000 0,0 2656.391,1809.142 Z" style="stroke-width:1.0;stroke:rgb(0,0,0);stroke-linecap:round;fill:rgb(150,150,150);" />
<path d="M2570.147,1820.812 A1117.200,1117.200 40.000 0,1 2567.868,1828.320 L2644.144,1851.772 A1197.000,1197.000 0.000 0,0 2646.587,1843.727 Z" style="stroke-width:1.0;stroke:rgb(0,0,0);stroke-linecap:round;fill:rgb(150,150,150);" />
<path d="M2567.857,1828.354 A1117.200,1117.200 40.000 0,1 2559.063,1855.698 L2634.710,1881.105 A1197.000,1197.000 0.000 0,0 2644.133,1851.808 Z" style="stroke-width:1.0;stroke:rgb(0,0,0);stroke-linecap:round;fill:rgb(150,150,150);" />
<path d="M2558.133,1858.457 A1117.200,1117.200 40.000 0,1 2528.921,1935.267 L2602.415,1966.358 A1197.000,1197.000 0.000 0,0 2633.713,1884.061 Z" style="stroke-width:1.0;stroke:rgb(0,0,0);stroke-linecap:round;fill:rgb(150,150,150);" />
<path d="M2528.533,1936.183 A1117.200,1117.200 40.000 0,1 2525.190,1943.982 L2598.418,1975.695 A1197.000,1197.000 0.000 0,0 2602.000,1967.339 Z" style="stroke-width:1.0;stroke:rgb(0,0,0);stroke-linecap:round;fill:rgb(150,150,150);" />
<path d="M2524.922,1944.601 A1117.200,1117.200 40.000 0,1 2508.023,1981.691 L2580.024,2016.098 A1197.000,1197.000 0.000 0,0 2598.131,1976.359 Z" style="stroke-width:1.0;stroke:rgb(0,0,0);stroke-linecap:round;fill:rgb(150,150,150);" />
<path d="M2508.130,1981.467 A1117.200,1117.200 40.000 0,1 2487.864,2021.785 L2558.426,2059.056 A1197.000,1197.000 0.000 0,0 2580.139,2015.857 Z" style="stroke-width:1.0;stroke:rgb(0,0,0);stroke-linecap:round;fill:rgb(150,150,150);" />
<path d="M2451.983,2084.691 A1117.200,1117.200 40.000 0,1 2417.503,2137.435 L2483.039,2182.966 A1197.000,1197.000 0.000 0,0 2519.982,2126.454 Z" style="stroke-width:1.0;stroke:rgb(0,0,0);stroke-linecap:round;fill:rgb(150,150,150);" />
<path d="M2417.564,2137.347 A1117.200,1117.200 40.000 0,1 2410.727,2147.080 L2475.779,2193.300 A1197.000,1197.000 0.000 0,0 2483.104,2182.872 Z" style="stroke-width:1.0;stroke:rgb(0,0,0);stroke-linecap:round;fill:rgb(150,150,150);" />
<path d="M2397.674,2165.070 A1117.200,1117.200 40.000 0,1 2389.705,2175.692 L2453.256,2223.956 A1197.000,1197.000 0.000 0,0 2461.793,2212.575 Z" style="stroke-width:1.0;stroke:rgb(0,0,0);stroke-linecap:round;fill:rgb(150,150,150);" />
<path d="M2345.709,2230.009 A1117.200,1117.200 40.000 0,1 2319.315,2259.513 L2377.837,2313.763 A1197.000,1197.000 0.000 0,0 2406.116,2282.152 Z" style="stroke-width:1.0;stroke:rgb(0,0,0);stroke-linecap:round;fill:rgb(150,150,150);" />
<path d="M2246.094,2331.552 A1117.200,1117.200 40.000 0,1 2218.370,2355.617 L2269.683,2416.732 A1197.000,1197.000 0.000 0,0 2299.387,2390.949 Z" style="stroke-width:1.0;stroke:rgb(0,0,0);stroke-linecap:round;fill:rgb(150,150,150);" />
<path d="M2111.752,2434.824 A1117.200,1117.200 40.000 0,1 2099.789,2442.544 L2142.631,2509.868 A1197.000,1197.000 0.000 0,0 2155.449,2501.597 Z" style="stroke-width:1.0;stroke:rgb(0,0,0);stroke-linecap:round;fill:rgb(150,150,150);" />
<path d="M1976.608,2510.436 A1117.200,1117.200 40.000 0,1 1960.007,2518.101 L1992.864,2590.822 A1197.000,1197.000 0.000 0,0 2010.651,2582.610 Z" style="stroke-width:1.0;stroke:rgb(0,0,0);stroke-linecap:round;fill:rgb(150,150,150);" />
<path d="M1940.935,2526.505 A1117.200,1117.200 40.000 0,1 1908.953,2539.660 L1938.164,2613.922 A1197.000,1197.000 0.000 0,0 1972.430,2599.827 Z" style="stroke-width:1.0;stroke:rgb(0,0,0);stroke-linecap:round;fill:rgb(150,150,150);" />
<path d="M1908.920,2539.673 A1117.200,1117.200 40.000 0,1 1828.949,2567.674 L1852.445,2643.937 A1197.000,1197.000 0.000 0,0 1938.129,2613.935 Z" style="stroke-width:1.0;stroke:rgb(0,0,0);stroke-linecap:round;fill:rgb(150,150,150);" />
<path d="M1663.589,2605.158 A1117.200,1117.200 40.000 0,1 1648.119,2607.338 L1658.699,2686.433 A1197.000,1197.000 0.000 0,0 1675.274,2684.098 Z" style="stroke-width:1.0;stroke:rgb(0,0,0);stroke-linecap:round;fill:rgb(150,150,150);" />
<path d="M1429.639,2614.982 A1117.200,1117.200 40.000 0,1 1397.285,2612.468 L1389.949,2691.930 A1197.000,1197.000 0.000 0,0 1424.613,2694.624 Z" style="stroke-width:1.0;stroke:rgb(0,0,0);stroke-linecap:round;fill:rgb(150,150,150);" />
<path d="M1346.956,2606.668 A1117.200,1117.200 40.000 0,1 1280.624,2595.450 L1264.955,2673.696 A1197.000,1197.000 0.000 0,0 1336.024,2685.715 Z" style="stroke-width:1.0;stroke:rgb(0,0,0);stroke-linecap:round;fill:rgb(150,150,150);" />
<path d="M1279.406,2595.205 A1117.200,1117.200 40.000 0,1 1249.455,2588.744 L1231.558,2666.511 A1197.000,1197.000 0.000 0,0 1263.649,2673.434 Z" style="stroke-width:1.0;stroke:rgb(0,0,0);stroke-linecap:round;fill:rgb(150,150,150);" />
<path d="M1248.382,2588.496 A1117.200,1117.200 40.000 0,1 1191.504,2573.763 L1169.469,2650.460 A1197.000,1197.000 0.000 0,0 1230.409,2666.246 Z" style="stroke-width:1.0;stroke:rgb(0,0,0);stroke-linecap:round;fill:rgb(150,150,150);" />
<path d="M1190.685,2573.527 A1117.200,1117.200 40.000 0,1 1175.296,2568.973 L1152.103,2645.328 A1197.000,1197.000 0.000 0,0 1168.591,2650.207 Z" style="stroke-width:1.0;stroke:rgb(0,0,0);stroke-linecap:round;fill:rgb(150,150,150);" />
<path d="M1174.583,2568.756 A1117.200,1117.200 40.000 0,1 1151.766,2561.541 L1126.892,2637.365 A1197.000,1197.000 0.000 0,0 1151.339,2645.096 Z" style="stroke-width:1.0;stroke:rgb(0,0,0);stroke-linecap:round;fill:rgb(150,150,150);" />
<path d="M1151.867,2561.574 A1117.200,1117.200 40.000 0,1 1144.016,2558.967 L1118.588,2634.608 A1197.000,1197.000 0.000 0,0 1127.001,2637.401 Z" style="stroke-width:1.0;stroke:rgb(0,0,0);stroke-linecap:round;fill:rgb(150,150,150);" />
<path d="M1143.511,2558.797 A1117.200,1117.200 40.000 0,1 1079.147,2534.900 L1049.086,2608.822 A1197.000,1197.000 0.000 0,0 1118.048,2634.426 Z" style="stroke-width:1.0;stroke:rgb(0,0,0);stroke-linecap:round;fill:rgb(150,150,150);" />
<path d="M1077.404,2534.190 A1117.200,1117.200 40.000 0,1 1049.787,2522.469 L1017.629,2595.503 A1197.000,1197.000 0.000 0,0 1047.219,2608.061 Z" style="stroke-width:1.0;stroke:rgb(0,0,0);stroke-linecap:round;fill:rgb(150,150,150);" />
<path d="M1032.951,2514.890 A1117.200,1117.200 40.000 0,1 997.193,2497.658 L961.279,2568.919 A1197.000,1197.000 0.000 0,0 999.591,2587.382 Z" style="stroke-width:1.0;stroke:rgb(0,0,0);stroke-linecap:round;fill:rgb(150,150,150);" />
<path d="M996.433,2497.274 A1117.200,1117.200 40.000 0,1 930.067,2460.892 L889.358,2529.527 A1197.000,1197.000 0.000 0,0 960.464,2568.508 Z" style="stroke-width:1.0;stroke:rgb(0,0,0);stroke-linecap:round;fill:rgb(150,150,150);" />
<path d="M902.430,2443.952 A1117.200,1117.200 40.000 0,1 893.397,2438.173 L850.069,2505.186 A1197.000,1197.000 0.000 0,0 859.746,2511.377 Z" style="stroke-width:1.0;stroke:rgb(0,0,0);stroke-linecap:round;fill:rgb(150,150,150);" />
<path d="M893.368,2438.154 A1117.200,1117.200 40.000 0,1 815.898,2383.255 L767.034,2446.345 A1197.000,1197.000 0.000 0,0 850.037,2505.165 Z" style="stroke-width:1.0;stroke:rgb(0,0,0);stroke-linecap:round;fill:rgb(150,150,150);" />
<path d="M788.916,2361.682 A1117.200,1117.200 40.000 0,1 773.370,2348.614 L721.468,2409.229 A1197.000,1197.000 0.000 0,0 738.125,2423.231 Z" style="stroke-width:1.0;stroke:rgb(0,0,0);stroke-linecap:round;fill:rgb(150,150,150);" />
<path d="M772.723,2348.059 A1117.200,1117.200 40.000 0,1 767.026,2343.140 L714.671,2403.364 A1197.000,1197.000 0.000 0,0 720.775,2408.635 Z" style="stroke-width:1.0;stroke:rgb(0,0,0);stroke-linecap:round;fill:rgb(150,150,150);" />
<path d="M764.190,2340.666 A1117.200,1117.200 40.000 0,1 756.950,2334.274 L703.875,2393.865 A1197.000,1197.000 0.000 0,0 711.632,2400.714 Z" style="stroke-width:1.0;stroke:rgb(0,0,0);stroke-linecap:round;fill:rgb(150,150,150);" />
<path d="M756.500,2333.872 A1117.200,1117.200 40.000 0,1 752.243,2330.057 L698.832,2389.347 A1197.000,1197.000 0.000 0,0 703.393,2393.435 Z" style="stroke-width:1.0;stroke:rgb(0,0,0);stroke-linecap:round;fill:rgb(150,150,150);" />
<path d="M752.507,2330.295 A1117.200,1117.200 40.000 0,1 745.043,2323.514 L691.118,2382.337 A1197.000,1197.000 0.000 0,0 699.114,2389.602 Z" style="stroke-width:1.0;stroke:rgb(0,0,0);stroke-linecap:round;fill:rgb(150,150,150);" />
<path d="M745.462,2323.898 A1117.200,1117.200 40.000 0,1 716.291,2296.201 L660.311,2353.072 A1197.000,1197.000 0.000 0,0 691.566,2382.748 Z" style="stroke-width:1.0;stroke:rgb(0,0,0);stroke-linecap:round;fill:rgb(150,150,150);" />
<path d="M716.215,2296.126 A1117.200,1117.200 40.000 0,1 700.830,2280.681 L643.746,2336.444 A1197.000,1197.000 0.000 0,0 660.230,2352.992 Z" style="stroke-width:1.0;stroke:rgb(0,0,0);stroke-linecap:round;fill:rgb(150,150,150);" />
<path d="M665.148,2242.401 A1117.200,1117.200 40.000 0,1 659.674,2236.198 L599.651,2288.784 A1197.000,1197.000 0.000 0,0 605.516,2295.429 Z" style="stroke-width:1.0;stroke:rgb(0,0,0);stroke-linecap:round;fill:rgb(150,150,150);" />
<path d="M659.650,2236.172 A1117.200,1117.200 40.000 0,1 651.583,2226.860 L590.982,2278.778 A1197.000,1197.000 0.000 0,0 599.625,2288.755 Z" style="stroke-width:1.0;stroke:rgb(0,0,0);stroke-linecap:round;fill:rgb(150,150,150);" />
<path d="M464.906,1920.377 A1117.200,1117.200 40.000 0,1 445.709,1869.602 L370.402,1896.002 A1197.000,1197.000 0.000 0,0 390.971,1950.404 Z" style="stroke-width:1.0;stroke:rgb(0,0,0);stroke-linecap:round;fill:rgb(150,150,150);" />
<path d="M445.111,1867.893 A1117.200,1117.200 40.000 0,1 441.288,1856.742 L365.666,1882.224 A1197.000,1197.000 0.000 0,0 369.762,1894.171 Z" style="stroke-width:1.0;stroke:rgb(0,0,0);stroke-linecap:round;fill:rgb(150,150,150);" />
<path d="M441.277,1856.709 A1117.200,1117.200 40.000 0,1 436.392,1841.869 L360.420,1866.289 A1197.000,1197.000 0.000 0,0 365.654,1882.188 Z" style="stroke-width:1.0;stroke:rgb(0,0,0);stroke-linecap:round;fill:rgb(150,150,150);" />
<path d="M436.381,1841.835 A1117.200,1117.200 40.000 0,1 426.872,1810.697 L350.220,1832.890 A1197.000,1197.000 0.000 0,0 360.409,1866.252 Z" style="stroke-width:1.0;stroke:rgb(0,0,0);stroke-linecap:round;fill:rgb(150,150,150);" />
<path d="M427.238,1811.959 A1117.200,1117.200 40.000 0,1 424.929,1803.904 L348.138,1825.612 A1197.000,1197.000 0.000 0,0 350.613,1834.242 Z" style="stroke-width:1.0;stroke:rgb(0,0,0);stroke-linecap:round;fill:rgb(150,150,150);" />
<path d="M424.611,1802.777 A1117.200,1117.200 40.000 0,1 423.388,1798.399 L346.487,1819.714 A1197.000,1197.000 0.000 0,0 347.797,1824.404 Z" style="stroke-width:1.0;stroke:rgb(0,0,0);stroke-linecap:round;fill:rgb(150,150,150);" />
<path d="M419.654,1784.586 A1117.200,1117.200 40.000 0,1 411.941,1753.504 L334.223,1771.611 A1197.000,1197.000 0.000 0,0 342.487,1804.914 Z" style="stroke-width:1.0;stroke:rgb(0,0,0);stroke-linecap:round;fill:rgb(150,150,150);" />
<path d="M390.526,1631.158 A1117.200,1117.200 40.000 0,1 387.443,1601.743 L307.974,1609.011 A1197.000,1197.000 0.000 0,0 311.277,1640.526 Z" style="stroke-width:1.0;stroke:rgb(0,0,0);stroke-linecap:round;fill:rgb(150,150,150);" />
<path d="M385.440,1576.757 A1117.200,1117.200 40.000 0,1 384.067,1553.186 L304.357,1556.985 A1197.000,1197.000 0.000 0,0 305.828,1582.240 Z" style="stroke-width:1.0;stroke:rgb(0,0,0);stroke-linecap:round;fill:rgb(150,150,150);" />
<path d="M382.803,1497.213 A1117.200,1117.200 40.000 0,1 383.506,1460.296 L303.756,1457.460 A1197.000,1197.000 0.000 0,0 303.004,1497.014 Z" style="stroke-width:1.0;stroke:rgb(0,0,0);stroke-linecap:round;fill:rgb(150,150,150);" />
</g>
<g id="plot2">
<g id="plot2-axis">
</g>
<path d="M1836.632,164.782 A1377.000,1377.000 40.000 0,1 1836.675,164.792 L1769.902,429.604 A1103.900,1103.900 0.000 0,0 1769.868,429.595 Z" style="stroke-width:3.0;stroke:rgb(61,64,91);stroke-linecap:round;fill:rgb(150,150,150);" />
<path d="M2376.916,438.328 A1377.000,1377.000 40.000 0,1 2376.950,438.356 L2203.024,648.911 A1103.900,1103.900 0.000 0,0 2202.997,648.889 Z" style="stroke-width:3.0;stroke:rgb(61,64,91);stroke-linecap:round;fill:rgb(150,150,150);" />
<path d="M2437.497,491.423 A1377.000,1377.000 40.000 0,1 2437.529,491.453 L2251.589,691.477 A1103.900,1103.900 0.000 0,0 2251.564,691.454 Z" style="stroke-width:3.0;stroke:rgb(61,64,91);stroke-linecap:round;fill:rgb(150,150,150);" />
<path d="M2502.583,556.095 A1377.000,1377.000 40.000 0,1 2502.613,556.127 L2303.765,743.325 A1103.900,1103.900 0.000 0,0 2303.741,743.299 Z" style="stroke-width:3.0;stroke:rgb(224,122,95);stroke-linecap:round;fill:rgb(150,150,150);" />
<path d="M2632.037,716.022 A1377.000,1377.000 40.000 0,1 2632.062,716.058 L2407.540,871.537 A1103.900,1103.900 0.000 0,0 2407.520,871.508 Z" style="stroke-width:3.0;stroke:rgb(224,122,95);stroke-linecap:round;fill:rgb(150,150,150);" />
<path d="M2648.859,740.887 A1377.000,1377.000 40.000 0,1 2648.883,740.923 L2421.025,891.471 A1103.900,1103.900 0.000 0,0 2421.006,891.441 Z" style="stroke-width:3.0;stroke:rgb(129,178,154);stroke-linecap:round;fill:rgb(150,150,150);" />
<path d="M2724.145,869.447 A1377.000,1377.000 40.000 0,1 2724.165,869.486 L2481.377,994.535 A1103.900,1103.900 0.000 0,0 2481.361,994.504 Z" style="stroke-width:3.0;stroke:rgb(224,122,95);stroke-linecap:round;fill:rgb(150,150,150);" />
<path d="M2774.396,978.422 A1377.000,1377.000 40.000 0,1 2774.413,978.462 L2521.659,1081.899 A1103.900,1103.900 0.000 0,0 2521.645,1081.866 Z" style="stroke-width:3.0;stroke:rgb(61,64,91);stroke-linecap:round;fill:rgb(150,150,150);" />
<path d="M2792.724,1025.665 A1377.000,1377.000 40.000 0,1 2792.739,1025.706 L2536.351,1119.773 A1103.900,1103.900 0.000 0,0 2536.339,1119.740 Z" style="stroke-width:3.0;stroke:rgb(61,64,91);stroke-linecap:round;fill:rgb(150,150,150);" />
<path d="M2797.217,1038.094 A1377.000,1377.000 40.000 0,1 2797.232,1038.136 L2539.952,1129.737 A1103.900,1103.900 0.000 0,0 2539.940,1129.704 Z" style="stroke-width:3.0;stroke:rgb(61,64,91);stroke-linecap:round;fill:rgb(150,150,150);" />
<path d="M2803.789,1056.983 A1377.000,1377.000 40.000 0,1 2803.803,1057.025 L2545.220,1144.880 A1103.900,1103.900 0.000 0,0 2545.209,1144.847 Z" style="stroke-width:3.0;stroke:rgb(224,122,95);stroke-linecap:round;fill:rgb(150,150,150);" />
<path d="M2804.070,1057.812 A1377.000,1377.000 40.000 0,1 2804.084,1057.853 L2545.446,1145.544 A1103.900,1103.900 0.000 0,0 2545.434,1145.511 Z" style="stroke-width:3.0;stroke:rgb(61,64,91);stroke-linecap:round;fill:rgb(150,150,150);" />
<path d="M2868.686,1651.091 A1377.000,1377.000 40.000 0,1 2868.681,1651.135 L2597.231,1621.160 A1103.900,1103.900 0.000 0,0 2597.235,1621.126 Z" style="stroke-width:3.0;stroke:rgb(61,64,91);stroke-linecap:round;fill:rgb(150,150,150);" />
<path d="M2861.722,1704.552 A1377.000,1377.000 40.000 0,1 2861.716,1704.595 L2591.647,1664.018 A1103.900,1103.900 0.000 0,0 2591.652,1663.983 Z" style="stroke-width:3.0;stroke:rgb(224,122,95);stroke-linecap:round;fill:rgb(150,150,150);" />
<path d="M2858.170,1726.941 A1377.000,1377.000 40.000 0,1 2858.163,1726.984 L2588.799,1681.966 A1103.900,1103.900 0.000 0,0 2588.805,1681.932 Z" style="stroke-width:3.0;stroke:rgb(224,122,95);stroke-linecap:round;fill:rgb(150,150,150);" />
<path d="M2726.044,2126.854 A1377.000,1377.000 40.000 0,1 2726.024,2126.893 L2482.867,2002.561 A1103.900,1103.900 0.000 0,0 2482.883,2002.530 Z" style="stroke-width:3.0;stroke:rgb(61,64,91);stroke-linecap:round;fill:rgb(150,150,150);" />
<path d="M2527.072,2417.198 A1377.000,1377.000 40.000 0,1 2527.043,2417.231 L2323.350,2235.317 A1103.900,1103.900 0.000 0,0 2323.373,2235.291 Z" style="stroke-width:3.0;stroke:rgb(61,64,91);stroke-linecap:round;fill:rgb(150,150,150);" />
<path d="M2506.295,2439.946 A1377.000,1377.000 40.000 0,1 2506.265,2439.978 L2306.693,2253.553 A1103.900,1103.900 0.000 0,0 2306.717,2253.527 Z" style="stroke-width:3.0;stroke:rgb(61,64,91);stroke-linecap:round;fill:rgb(150,150,150);" />
<path d="M2471.619,2475.749 A1377.000,1377.000 40.000 0,1 2471.588,2475.780 L2278.893,2282.254 A1103.900,1103.900 0.000 0,0 2278.918,2282.229 Z" style="stroke-width:3.0;stroke:rgb(61,64,91);stroke-linecap:round;fill:rgb(150,150,150);" />
<path d="M2368.284,2568.744 A1377.000,1377.000 40.000 0,1 2368.250,2568.771 L2196.050,2356.802 A1103.900,1103.900 0.000 0,0 2196.077,2356.780 Z" style="stroke-width:3.0;stroke:rgb(61,64,91);stroke-linecap:round;fill:rgb(150,150,150);" />
<path d="M2229.792,2667.704 A1377.000,1377.000 40.000 0,1 2229.754,2667.727 L2085.022,2436.132 A1103.900,1103.900 0.000 0,0 2085.052,2436.114 Z" style="stroke-width:3.0;stroke:rgb(61,64,91);stroke-linecap:round;fill:rgb(150,150,150);" />
<path d="M2188.608,2692.455 A1377.000,1377.000 40.000 0,1 2188.570,2692.477 L2052.006,2455.973 A1103.900,1103.900 0.000 0,0 2052.036,2455.956 Z" style="stroke-width:3.0;stroke:rgb(61,64,91);stroke-linecap:round;fill:rgb(150,150,150);" />
<path d="M2185.650,2694.158 A1377.000,1377.000 40.000 0,1 2185.612,2694.180 L2049.635,2457.339 A1103.900,1103.900 0.000 0,0 2049.665,2457.321 Z" style="stroke-width:3.0;stroke:rgb(61,64,91);stroke-linecap:round;fill:rgb(150,150,150);" />
<path d="M2152.181,2712.761 A1377.000,1377.000 40.000 0,1 2152.143,2712.782 L2022.803,2472.251 A1103.900,1103.900 0.000 0,0 2022.834,2472.234 Z" style="stroke-width:3.0;stroke:rgb(224,122,95);stroke-linecap:round;fill:rgb(150,150,150);" />
<path d="M2103.068,2737.917 A1377.000,1377.000 40.000 0,1 2103.029,2737.936 L1983.430,2492.417 A1103.900,1103.900 0.000 0,0 1983.462,2492.401 Z" style="stroke-width:3.0;stroke:rgb(61,64,91);stroke-linecap:round;fill:rgb(150,150,150);" />
<path d="M1994.347,2785.204 A1377.000,1377.000 40.000 0,1 1994.306,2785.220 L1896.270,2530.323 A1103.900,1103.900 0.000 0,0 1896.303,2530.310 Z" style="stroke-width:3.0;stroke:rgb(61,64,91);stroke-linecap:round;fill:rgb(150,150,150);" />
<path d="M1809.066,2841.867 A1377.000,1377.000 40.000 0,1 1809.023,2841.877 L1747.734,2575.743 A1103.900,1103.900 0.000 0,0 1747.769,2575.735 Z" style="stroke-width:3.0;stroke:rgb(61,64,91);stroke-linecap:round;fill:rgb(150,150,150);" />
<path d="M1666.633,2866.881 A1377.000,1377.000 40.000 0,1 1666.589,2866.886 L1633.550,2595.792 A1103.900,1103.900 0.000 0,0 1633.585,2595.788 Z" style="stroke-width:3.0;stroke:rgb(61,64,91);stroke-linecap:round;fill:rgb(150,150,150);" />
<path d="M666.917,2596.404 A1377.000,1377.000 40.000 0,1 666.882,2596.378 L832.114,2378.933 A1103.900,1103.900 0.000 0,0 832.142,2378.955 Z" style="stroke-width:3.0;stroke:rgb(224,122,95);stroke-linecap:round;fill:rgb(150,150,150);" />
<path d="M598.163,2540.585 A1377.000,1377.000 40.000 0,1 598.129,2540.557 L776.997,2334.184 A1103.900,1103.900 0.000 0,0 777.024,2334.206 Z" style="stroke-width:3.0;stroke:rgb(61,64,91);stroke-linecap:round;fill:rgb(150,150,150);" />
<path d="M508.951,2456.007 A1377.000,1377.000 40.000 0,1 508.920,2455.976 L705.481,2266.377 A1103.900,1103.900 0.000 0,0 705.505,2266.403 Z" style="stroke-width:3.0;stroke:rgb(61,64,91);stroke-linecap:round;fill:rgb(150,150,150);" />
<path d="M492.571,2438.731 A1377.000,1377.000 40.000 0,1 492.541,2438.699 L692.350,2252.527 A1103.900,1103.900 0.000 0,0 692.374,2252.553 Z" style="stroke-width:3.0;stroke:rgb(61,64,91);stroke-linecap:round;fill:rgb(150,150,150);" />
<path d="M475.586,2420.165 A1377.000,1377.000 40.000 0,1 475.557,2420.133 L678.734,2237.643 A1103.900,1103.900 0.000 0,0 678.758,2237.669 Z" style="stroke-width:3.0;stroke:rgb(198,135,143);stroke-linecap:round;fill:rgb(150,150,150);" />
<path d="M123.013,1494.071 A1377.000,1377.000 40.000 0,1 123.013,1494.027 L396.110,1495.212 A1103.900,1103.900 0.000 0,0 396.110,1495.247 Z" style="stroke-width:3.0;stroke:rgb(224,122,95);stroke-linecap:round;fill:rgb(150,150,150);" />
<path d="M126.341,1404.129 A1377.000,1377.000 40.000 0,1 126.345,1404.085 L398.781,1423.108 A1103.900,1103.900 0.000 0,0 398.779,1423.143 Z" style="stroke-width:3.0;stroke:rgb(61,64,91);stroke-linecap:round;fill:rgb(150,150,150);" />
<path d="M162.123,1174.094 A1377.000,1377.000 40.000 0,1 162.134,1174.051 L427.472,1238.697 A1103.900,1103.900 0.000 0,0 427.464,1238.731 Z" style="stroke-width:3.0;stroke:rgb(224,122,95);stroke-linecap:round;fill:rgb(150,150,150);" />
<path d="M256.436,908.664 A1377.000,1377.000 40.000 0,1 256.455,908.625 L503.087,1025.912 A1103.900,1103.900 0.000 0,0 503.072,1025.944 Z" style="stroke-width:3.0;stroke:rgb(224,122,95);stroke-linecap:round;fill:rgb(150,150,150);" />
<path d="M258.095,905.189 A1377.000,1377.000 40.000 0,1 258.114,905.149 L504.417,1023.126 A1103.900,1103.900 0.000 0,0 504.401,1023.157 Z" style="stroke-width:3.0;stroke:rgb(224,122,95);stroke-linecap:round;fill:rgb(150,150,150);" />
<path d="M309.244,808.458 A1377.000,1377.000 40.000 0,1 309.266,808.421 L545.424,945.581 A1103.900,1103.900 0.000 0,0 545.407,945.612 Z" style="stroke-width:3.0;stroke:rgb(224,122,95);stroke-linecap:round;fill:rgb(150,150,150);" />
<path d="M387.872,688.027 A1377.000,1377.000 40.000 0,1 387.897,687.992 L608.460,849.037 A1103.900,1103.900 0.000 0,0 608.440,849.066 Z" style="stroke-width:3.0;stroke:rgb(129,178,154);stroke-linecap:round;fill:rgb(150,150,150);" />
<path d="M445.680,614.258 A1377.000,1377.000 40.000 0,1 445.708,614.225 L654.806,789.900 A1103.900,1103.900 0.000 0,0 654.783,789.927 Z" style="stroke-width:3.0;stroke:rgb(61,64,91);stroke-linecap:round;fill:rgb(150,150,150);" />
<path d="M697.759,380.831 A1377.000,1377.000 40.000 0,1 697.794,380.806 L856.896,602.775 A1103.900,1103.900 0.000 0,0 856.867,602.796 Z" style="stroke-width:3.0;stroke:rgb(61,64,91);stroke-linecap:round;fill:rgb(150,150,150);" />
<path d="M840.238,291.346 A1377.000,1377.000 40.000 0,1 840.277,291.325 L971.119,531.041 A1103.900,1103.900 0.000 0,0 971.089,531.058 Z" style="stroke-width:3.0;stroke:rgb(61,64,91);stroke-linecap:round;fill:rgb(150,150,150);" />
<path d="M900.120,260.535 A1377.000,1377.000 40.000 0,1 900.160,260.516 L1019.126,506.342 A1103.900,1103.900 0.000 0,0 1019.094,506.358 Z" style="stroke-width:3.0;stroke:rgb(61,64,91);stroke-linecap:round;fill:rgb(150,150,150);" />
<path d="M1058.329,195.755 A1377.000,1377.000 40.000 0,1 1058.371,195.741 L1145.959,454.414 A1103.900,1103.900 0.000 0,0 1145.926,454.425 Z" style="stroke-width:3.0;stroke:rgb(61,64,91);stroke-linecap:round;fill:rgb(150,150,150);" />
</g>
<g id="plot3">
<g id="plot3-axis">
</g>
<text x="1809.3" y="297.2" font-size="13.0px" font-family="CMUBright-Roman" style="text-anchor:start;fill:rgb(0,0,0);" transform="rotate(284.2,1809.3,297.2)" >OPG019</text>
<text x="2724.2" y="1708.8" font-size="13.0px" font-family="CMUBright-Roman" style="text-anchor:start;fill:rgb(0,0,0);" transform="rotate(9.4,2724.2,1708.8)" >OPG072</text>
<text x="2395.9" y="2360.0" font-size="13.0px" font-family="CMUBright-Roman" style="text-anchor:start;fill:rgb(0,0,0);" transform="rotate(43.6,2395.9,2360.0)" >OPG093</text>
<text x="2370.3" y="2385.9" font-size="13.0px" font-family="CMUBright-Roman" style="text-anchor:start;fill:rgb(0,0,0);" transform="rotate(45.3,2370.3,2385.9)" >OPG094</text>
<text x="2345.0" y="2410.1" font-size="13.0px" font-family="CMUBright-Roman" style="text-anchor:start;fill:rgb(0,0,0);" transform="rotate(46.9,2345.0,2410.1)" >OPG095</text>
<text x="2282.4" y="2464.4" font-size="13.0px" font-family="CMUBright-Roman" style="text-anchor:start;fill:rgb(0,0,0);" transform="rotate(50.7,2282.4,2464.4)" >OPG098</text>
<text x="2264.5" y="2478.7" font-size="13.0px" font-family="CMUBright-Roman" style="text-anchor:start;fill:rgb(0,0,0);" transform="rotate(51.8,2264.5,2478.7)" >OPG099</text>
<text x="2209.7" y="2519.2" font-size="13.0px" font-family="CMUBright-Roman" style="text-anchor:start;fill:rgb(0,0,0);" transform="rotate(54.9,2209.7,2519.2)" >OPG102</text>
<text x="2187.0" y="2534.6" font-size="13.0px" font-family="CMUBright-Roman" style="text-anchor:start;fill:rgb(0,0,0);" transform="rotate(56.2,2187.0,2534.6)" >OPG103</text>
<text x="2093.2" y="2591.1" font-size="13.0px" font-family="CMUBright-Roman" style="text-anchor:start;fill:rgb(0,0,0);" transform="rotate(61.2,2093.2,2591.1)" >OPG105</text>
<text x="1841.9" y="2693.9" font-size="13.0px" font-family="CMUBright-Roman" style="text-anchor:start;fill:rgb(0,0,0);" transform="rotate(73.8,1841.9,2693.9)" >OPG110</text>
<text x="1646.2" y="2733.3" font-size="13.0px" font-family="CMUBright-Roman" style="text-anchor:start;fill:rgb(0,0,0);" transform="rotate(83.0,1646.2,2733.3)" >OPG115</text>
<text x="1619.6" y="2736.1" font-size="13.0px" font-family="CMUBright-Roman" style="text-anchor:start;fill:rgb(0,0,0);" transform="rotate(84.2,1619.6,2736.1)" >OPG116</text>
<text x="854.1" y="2560.7" font-size="13.0px" font-family="CMUBright-Roman" style="text-anchor:end;fill:rgb(0,0,0);" transform="rotate(-58.4,854.1,2560.7)" >OPG134</text>
<text x="594.5" y="2349.9" font-size="13.0px" font-family="CMUBright-Roman" style="text-anchor:end;fill:rgb(0,0,0);" transform="rotate(-43.0,594.5,2349.9)" >OPG145</text>
<text x="501.8" y="2238.9" font-size="13.0px" font-family="CMUBright-Roman" style="text-anchor:end;fill:rgb(0,0,0);" transform="rotate(-36.3,501.8,2238.9)" >OPG150</text>
<text x="302.3" y="1828.3" font-size="13.0px" font-family="CMUBright-Roman" style="text-anchor:end;fill:rgb(0,0,0);" transform="rotate(-15.1,302.3,1828.3)" >OPG159</text>
<text x="289.0" y="1775.1" font-size="13.0px" font-family="CMUBright-Roman" style="text-anchor:end;fill:rgb(0,0,0);" transform="rotate(-12.6,289.0,1775.1)" >OPG161</text>
<text x="284.5" y="1754.7" font-size="13.0px" font-family="CMUBright-Roman" style="text-anchor:end;fill:rgb(0,0,0);" transform="rotate(-11.6,284.5,1754.7)" >OPG162</text>
<text x="280.1" y="1732.9" font-size="13.0px" font-family="CMUBright-Roman" style="text-anchor:end;fill:rgb(0,0,0);" transform="rotate(-10.6,280.1,1732.9)" >OPG163</text>
<text x="260.1" y="1430.3" font-size="13.0px" font-family="CMUBright-Roman" style="text-anchor:end;fill:rgb(0,0,0);" transform="rotate(3.4,260.1,1430.3)" >OPG176</text>
<text x="274.6" y="1298.5" font-size="13.0px" font-family="CMUBright-Roman" style="text-anchor:end;fill:rgb(0,0,0);" transform="rotate(9.6,274.6,1298.5)" >OPG180</text>
<text x="284.6" y="1244.9" font-size="13.0px" font-family="CMUBright-Roman" style="text-anchor:end;fill:rgb(0,0,0);" transform="rotate(12.1,284.6,1244.9)" >OPG181</text>
<text x="378.1" y="967.3" font-size="13.0px" font-family="CMUBright-Roman" style="text-anchor:end;fill:rgb(0,0,0);" transform="rotate(25.6,378.1,967.3)" >OPG188</text>
<text x="410.9" y="903.2" font-size="13.0px" font-family="CMUBright-Roman" style="text-anchor:end;fill:rgb(0,0,0);" transform="rotate(29.0,410.9,903.2)" >OPG189</text>
<text x="439.0" y="854.6" font-size="13.0px" font-family="CMUBright-Roman" style="text-anchor:end;fill:rgb(0,0,0);" transform="rotate(31.5,439.0,854.6)" >OPG190</text>
<text x="485.2" y="784.1" font-size="13.0px" font-family="CMUBright-Roman" style="text-anchor:end;fill:rgb(0,0,0);" transform="rotate(35.4,485.2,784.1)" >OPG193</text>
<text x="551.0" y="698.9" font-size="13.0px" font-family="CMUBright-Roman" style="text-anchor:end;fill:rgb(0,0,0);" transform="rotate(40.4,551.0,698.9)" >OPG198</text>
<text x="578.1" y="667.9" font-size="13.0px" font-family="CMUBright-Roman" style="text-anchor:end;fill:rgb(0,0,0);" transform="rotate(42.3,578.1,667.9)" >OPG199</text>
<text x="731.6" y="524.4" font-size="13.0px" font-family="CMUBright-Roman" style="text-anchor:end;fill:rgb(0,0,0);" transform="rotate(52.0,731.6,524.4)" >OPG205</text>
<text x="977.9" y="373.2" font-size="13.0px" font-family="CMUBright-Roman" style="text-anchor:end;fill:rgb(0,0,0);" transform="rotate(65.4,977.9,373.2)" >OPG210</text>
<text x="1172.4" y="302.1" font-size="13.0px" font-family="CMUBright-Roman" style="text-anchor:end;fill:rgb(0,0,0);" transform="rotate(74.9,1172.4,302.1)" >OPG005</text>
<text x="1220.1" y="290.1" font-size="13.0px" font-family="CMUBright-Roman" style="text-anchor:end;fill:rgb(0,0,0);" transform="rotate(77.2,1220.1,290.1)" >OPG016</text>
<text x="1260.0" y="281.5" font-size="13.0px" font-family="CMUBright-Roman" style="text-anchor:end;fill:rgb(0,0,0);" transform="rotate(79.1,1260.0,281.5)" >OPG015</text>
<text x="1329.1" y="269.9" font-size="13.0px" font-family="CMUBright-Roman" style="text-anchor:end;fill:rgb(0,0,0);" transform="rotate(82.3,1329.1,269.9)" >OPG003</text>
<text x="1387.9" y="263.2" font-size="13.0px" font-family="CMUBright-Roman" style="text-anchor:end;fill:rgb(0,0,0);" transform="rotate(85.0,1387.9,263.2)" >OPG002</text>
<text x="1428.1" y="260.2" font-size="13.0px" font-family="CMUBright-Roman" style="text-anchor:end;fill:rgb(0,0,0);" transform="rotate(86.9,1428.1,260.2)" >OPG001</text>
</g>
<g id="plot4">
<g id="plot4-axis">
</g>
<text x="1548.5" y="365.5" font-size="13.0px" font-family="CMUBright-Roman" style="text-anchor:start;fill:rgb(0,0,0);" transform="rotate(272.2,1548.5,365.5)" >OPG001</text>
<text x="1585.3" y="367.7" font-size="13.0px" font-family="CMUBright-Roman" style="text-anchor:start;fill:rgb(0,0,0);" transform="rotate(274.1,1585.3,367.7)" >OPG002</text>
<text x="1639.0" y="373.0" font-size="13.0px" font-family="CMUBright-Roman" style="text-anchor:start;fill:rgb(0,0,0);" transform="rotate(276.8,1639.0,373.0)" >OPG003</text>
<text x="1702.4" y="382.7" font-size="13.0px" font-family="CMUBright-Roman" style="text-anchor:start;fill:rgb(0,0,0);" transform="rotate(280.0,1702.4,382.7)" >OPG015</text>
<text x="2129.6" y="555.0" font-size="13.0px" font-family="CMUBright-Roman" style="text-anchor:start;fill:rgb(0,0,0);" transform="rotate(303.4,2129.6,555.0)" >OPG031</text>
<text x="2228.2" y="628.8" font-size="13.0px" font-family="CMUBright-Roman" style="text-anchor:start;fill:rgb(0,0,0);" transform="rotate(309.6,2228.2,628.8)" >OPG037</text>
<text x="2280.1" y="674.9" font-size="13.0px" font-family="CMUBright-Roman" style="text-anchor:start;fill:rgb(0,0,0);" transform="rotate(313.1,2280.1,674.9)" >OPG039</text>
<text x="2438.4" y="860.7" font-size="13.0px" font-family="CMUBright-Roman" style="text-anchor:start;fill:rgb(0,0,0);" transform="rotate(325.5,2438.4,860.7)" >OPG047</text>
<text x="2510.3" y="981.7" font-size="13.0px" font-family="CMUBright-Roman" style="text-anchor:start;fill:rgb(0,0,0);" transform="rotate(332.6,2510.3,981.7)" >OPG053</text>
<text x="2564.2" y="1104.1" font-size="13.0px" font-family="CMUBright-Roman" style="text-anchor:start;fill:rgb(0,0,0);" transform="rotate(339.3,2564.2,1104.1)" >OPG056</text>
<text x="2582.5" y="1157.2" font-size="13.0px" font-family="CMUBright-Roman" style="text-anchor:start;fill:rgb(0,0,0);" transform="rotate(342.2,2582.5,1157.2)" >OPG057</text>
<text x="2612.7" y="1273.5" font-size="13.0px" font-family="CMUBright-Roman" style="text-anchor:start;fill:rgb(0,0,0);" transform="rotate(348.2,2612.7,1273.5)" >OPG063</text>
<text x="2623.9" y="1338.3" font-size="13.0px" font-family="CMUBright-Roman" style="text-anchor:start;fill:rgb(0,0,0);" transform="rotate(351.6,2623.9,1338.3)" >OPG064</text>
<text x="2627.9" y="1631.1" font-size="13.0px" font-family="CMUBright-Roman" style="text-anchor:start;fill:rgb(0,0,0);" transform="rotate(6.4,2627.9,1631.1)" >OPG071</text>
<text x="2617.2" y="1703.1" font-size="13.0px" font-family="CMUBright-Roman" style="text-anchor:start;fill:rgb(0,0,0);" transform="rotate(10.1,2617.2,1703.1)" >OPG073</text>
<text x="2608.8" y="1744.9" font-size="13.0px" font-family="CMUBright-Roman" style="text-anchor:start;fill:rgb(0,0,0);" transform="rotate(12.2,2608.8,1744.9)" >OPG074</text>
<text x="2559.6" y="1908.3" font-size="13.0px" font-family="CMUBright-Roman" style="text-anchor:start;fill:rgb(0,0,0);" transform="rotate(20.8,2559.6,1908.3)" >OPG080</text>
<text x="2512.3" y="2014.4" font-size="13.0px" font-family="CMUBright-Roman" style="text-anchor:start;fill:rgb(0,0,0);" transform="rotate(26.7,2512.3,2014.4)" >OPG083</text>
<text x="2342.9" y="2260.8" font-size="13.0px" font-family="CMUBright-Roman" style="text-anchor:start;fill:rgb(0,0,0);" transform="rotate(41.8,2342.9,2260.8)" >OPG092</text>
<text x="1870.5" y="2573.3" font-size="13.0px" font-family="CMUBright-Roman" style="text-anchor:start;fill:rgb(0,0,0);" transform="rotate(70.7,1870.5,2573.3)" >OPG109</text>
<text x="1220.1" y="2600.5" font-size="13.0px" font-family="CMUBright-Roman" style="text-anchor:end;fill:rgb(0,0,0);" transform="rotate(-75.5,1220.1,2600.5)" >OPG125</text>
<text x="1162.4" y="2584.2" font-size="13.0px" font-family="CMUBright-Roman" style="text-anchor:end;fill:rgb(0,0,0);" transform="rotate(-72.5,1162.4,2584.2)" >OPG127</text>
<text x="1061.0" y="2547.2" font-size="13.0px" font-family="CMUBright-Roman" style="text-anchor:end;fill:rgb(0,0,0);" transform="rotate(-67.0,1061.0,2547.2)" >OPG130</text>
<text x="847.6" y="2429.3" font-size="13.0px" font-family="CMUBright-Roman" style="text-anchor:end;fill:rgb(0,0,0);" transform="rotate(-54.7,847.6,2429.3)" >OPG136</text>
<text x="761.7" y="2362.7" font-size="13.0px" font-family="CMUBright-Roman" style="text-anchor:end;fill:rgb(0,0,0);" transform="rotate(-49.2,761.7,2362.7)" >OPG139</text>
<text x="364.6" y="1483.4" font-size="13.0px" font-family="CMUBright-Roman" style="text-anchor:end;fill:rgb(0,0,0);" transform="rotate(1.1,364.6,1483.4)" >OPG174</text>
</g>
<defs>
<pattern id="vline" width="10" height="10" patternTransform="rotate(0 0 0)" patternUnits="userSpaceOnUse"><line x1="0" y1="0" x2="0" y2="10" style="stroke:black;stroke-width:5" /></pattern>
<pattern id="hline-sparse" width="10" height="10" patternTransform="rotate(0 0 0)" patternUnits="userSpaceOnUse"><line x1="0" y1="0" x2="10" y2="0" style="stroke:black;stroke-width:2" /></pattern>
<pattern id="checker" width="10" height="10" patternTransform="rotate(45 0 0)" patternUnits="userSpaceOnUse"><line x1="0" y1="0" x2="10" y2="0" style="stroke:black;stroke-width:2" /><line x1="0" y1="0" x2="0" y2="10" style="stroke:black;stroke-width:2" /></pattern>
<pattern id="hline" width="10" height="10" patternTransform="rotate(0 0 0)" patternUnits="userSpaceOnUse"><line x1="0" y1="0" x2="10" y2="0" style="stroke:black;stroke-width:5" /></pattern>
<pattern id="vline-sparse" width="10" height="10" patternTransform="rotate(0 0 0)" patternUnits="userSpaceOnUse"><line x1="0" y1="0" x2="0" y2="10" style="stroke:black;stroke-width:2" /></pattern>
<pattern id="checker" width="10" height="10" patternTransform="rotate(45 0 0)" patternUnits="userSpaceOnUse"><line x1="0" y1="0" x2="10" y2="0" style="stroke:black;stroke-width:5" /><line x1="0" y1="0" x2="0" y2="10" style="stroke:black;stroke-width:4" /></pattern>
</defs>
</svg>
