<?xml version="1.0" encoding="utf-8" standalone="no"?>
<!DOCTYPE svg PUBLIC "-//W3C//DTD SVG 1.1//EN" "http://www.w3.org/Graphics/SVG/1.1/DTD/svg11.dtd">
<svg width="3000px" height="3000px" version="1.1" xmlns="http://www.w3.org/2000/svg" xmlns:xlink="http://www.w3.org/1999/xlink">
<g id="bg">
<rect x="0" y="0" width="3000px" height="3000px" style="fill:rgb(255,255,255);"/>
</g>
<g id="ideograms">
<g id="highlighttrack_0">
<path d="M1500.028,622.200 A877.800,877.800 40.000 0,1 1677.916,640.419 L1758.787,249.701 A1276.800,1276.800 0.000 0,0 1500.041,223.200 Z" style="stroke-linecap:round;fill:rgb(252,224,229);" />
<path d="M1308.665,643.307 A877.800,877.800 40.000 0,1 1486.246,622.308 L1479.995,223.357 A1276.800,1276.800 0.000 0,0 1221.694,253.900 Z" style="stroke-linecap:round;fill:rgb(252,224,229);" />
</g>
<g id="highlighttrack_1">
<path d="M1531.723,303.420 A1197.000,1197.000 40.000 0,1 1559.891,304.499 L1561.887,264.649 A1236.900,1236.900 0.000 0,0 1532.781,263.534 Z" style="stroke-linecap:round;fill:rgb(176,226,152);" />
<path d="M1564.678,304.749 A1197.000,1197.000 40.000 0,1 1604.520,307.572 L1608.004,267.824 A1236.900,1236.900 0.000 0,0 1566.834,264.907 Z" style="stroke-linecap:round;fill:rgb(176,226,152);" />
<path d="M1607.893,307.872 A1197.000,1197.000 40.000 0,1 1674.634,315.807 L1680.455,276.334 A1236.900,1236.900 0.000 0,0 1611.489,268.135 Z" style="stroke-linecap:round;fill:rgb(243,146,55);" />
<path d="M1683.473,317.145 A1197.000,1197.000 40.000 0,1 1732.695,325.836 L1740.452,286.697 A1236.900,1236.900 0.000 0,0 1689.589,277.716 Z" style="stroke-linecap:round;fill:rgb(157,105,163);" />
<path d="M1795.058,298.808 A1236.900,1236.900 40.000 0,1 1811.407,302.942 L1821.453,264.328 A1276.800,1276.800 0.000 0,0 1804.576,260.060 Z" style="stroke-linecap:round;fill:rgb(176,226,152);" />
<path d="M1871.024,320.058 A1236.900,1236.900 40.000 0,1 1898.259,328.970 L1911.106,291.195 A1276.800,1276.800 0.000 0,0 1882.992,281.995 Z" style="stroke-linecap:round;fill:rgb(157,105,163);" />
<path d="M1891.242,368.744 A1197.000,1197.000 40.000 0,1 1904.910,373.565 L1918.407,336.017 A1236.900,1236.900 0.000 0,0 1904.283,331.036 Z" style="stroke-linecap:round;fill:rgb(157,105,163);" />
<path d="M1907.022,374.326 A1197.000,1197.000 40.000 0,1 1977.109,402.195 L1993.013,365.601 A1236.900,1236.900 0.000 0,0 1920.589,336.803 Z" style="stroke-linecap:round;fill:rgb(157,105,163);" />
<path d="M1981.745,404.221 A1197.000,1197.000 40.000 0,1 1988.527,407.228 L2004.811,370.802 A1236.900,1236.900 0.000 0,0 1997.803,367.695 Z" style="stroke-linecap:round;fill:rgb(157,105,163);" />
<path d="M1993.592,409.507 A1197.000,1197.000 40.000 0,1 2058.265,441.157 L2076.874,405.862 A1236.900,1236.900 0.000 0,0 2010.045,373.157 Z" style="stroke-linecap:round;fill:rgb(176,226,152);" />
<path d="M2080.251,453.043 A1197.000,1197.000 40.000 0,1 2095.263,461.505 L2115.105,426.889 A1236.900,1236.900 0.000 0,0 2099.592,418.145 Z" style="stroke-linecap:round;fill:rgb(176,226,152);" />
<path d="M2102.641,465.769 A1197.000,1197.000 40.000 0,1 2117.956,474.847 L2138.555,440.675 A1236.900,1236.900 0.000 0,0 2122.729,431.295 Z" style="stroke-linecap:round;fill:rgb(176,226,152);" />
<path d="M2122.609,477.666 A1197.000,1197.000 40.000 0,1 2142.663,490.152 L2164.085,456.490 A1236.900,1236.900 0.000 0,0 2143.362,443.588 Z" style="stroke-linecap:round;fill:rgb(176,226,152);" />
<path d="M2144.075,491.052 A1197.000,1197.000 40.000 0,1 2174.270,510.976 L2196.746,478.008 A1236.900,1236.900 0.000 0,0 2165.544,457.420 Z" style="stroke-linecap:round;fill:rgb(176,226,152);" />
<path d="M2190.895,522.517 A1197.000,1197.000 40.000 0,1 2210.786,536.884 L2234.478,504.780 A1236.900,1236.900 0.000 0,0 2213.925,489.934 Z" style="stroke-linecap:round;fill:rgb(176,226,152);" />
<path d="M2212.162,537.901 A1197.000,1197.000 40.000 0,1 2222.941,545.974 L2247.039,514.173 A1236.900,1236.900 0.000 0,0 2235.901,505.831 Z" style="stroke-linecap:round;fill:rgb(176,226,152);" />
<path d="M2226.756,548.877 A1197.000,1197.000 40.000 0,1 2242.792,561.347 L2267.551,530.059 A1236.900,1236.900 0.000 0,0 2250.981,517.173 Z" style="stroke-linecap:round;fill:rgb(176,226,152);" />
<path d="M2243.984,562.292 A1197.000,1197.000 40.000 0,1 2282.915,594.543 L2309.012,564.361 A1236.900,1236.900 0.000 0,0 2268.784,531.035 Z" style="stroke-linecap:round;fill:rgb(176,226,152);" />
<path d="M2284.726,596.112 A1197.000,1197.000 40.000 0,1 2303.597,612.846 L2330.383,583.275 A1236.900,1236.900 0.000 0,0 2310.884,565.982 Z" style="stroke-linecap:round;fill:rgb(176,226,152);" />
<path d="M2306.524,615.507 A1197.000,1197.000 40.000 0,1 2330.258,637.747 L2357.933,609.005 A1236.900,1236.900 0.000 0,0 2333.409,586.024 Z" style="stroke-linecap:round;fill:rgb(176,226,152);" />
<path d="M2336.593,643.892 A1197.000,1197.000 40.000 0,1 2366.739,674.426 L2395.631,646.907 A1236.900,1236.900 0.000 0,0 2364.479,615.355 Z" style="stroke-linecap:round;fill:rgb(134,187,216);" />
<path d="M2375.713,683.951 A1197.000,1197.000 40.000 0,1 2408.052,720.096 L2438.321,694.099 A1236.900,1236.900 0.000 0,0 2404.904,656.750 Z" style="stroke-linecap:round;fill:rgb(134,187,216);" />
<path d="M2408.721,720.876 A1197.000,1197.000 40.000 0,1 2428.979,745.144 L2459.945,719.982 A1236.900,1236.900 0.000 0,0 2439.012,694.905 Z" style="stroke-linecap:round;fill:rgb(176,226,152);" />
<path d="M2463.282,724.108 A1236.900,1236.900 40.000 0,1 2474.280,737.963 L2505.708,713.381 A1276.800,1276.800 0.000 0,0 2494.356,699.079 Z" style="stroke-linecap:round;fill:rgb(176,226,152);" />
<path d="M2444.303,764.404 A1197.000,1197.000 40.000 0,1 2459.523,784.372 L2491.508,760.518 A1236.900,1236.900 0.000 0,0 2475.780,739.884 Z" style="stroke-linecap:round;fill:rgb(176,226,152);" />
<path d="M2459.774,784.707 A1197.000,1197.000 40.000 0,1 2470.039,798.691 L2502.373,775.314 A1236.900,1236.900 0.000 0,0 2491.766,760.864 Z" style="stroke-linecap:round;fill:rgb(176,226,152);" />
<path d="M2470.395,799.184 A1197.000,1197.000 40.000 0,1 2501.628,844.599 L2535.016,822.752 A1236.900,1236.900 0.000 0,0 2502.742,775.824 Z" style="stroke-linecap:round;fill:rgb(176,226,152);" />
<path d="M2501.836,844.917 A1197.000,1197.000 40.000 0,1 2521.353,875.783 L2555.398,854.976 A1236.900,1236.900 0.000 0,0 2535.231,823.081 Z" style="stroke-linecap:round;fill:rgb(176,226,152);" />
<path d="M2521.948,876.758 A1197.000,1197.000 40.000 0,1 2540.428,908.123 L2575.109,888.394 A1236.900,1236.900 0.000 0,0 2556.013,855.983 Z" style="stroke-linecap:round;fill:rgb(176,226,152);" />
<path d="M2540.973,909.082 A1197.000,1197.000 40.000 0,1 2545.228,916.641 L2580.069,897.195 A1236.900,1236.900 0.000 0,0 2575.672,889.385 Z" style="stroke-linecap:round;fill:rgb(176,226,152);" />
<path d="M2545.524,917.172 A1197.000,1197.000 40.000 0,1 2549.665,924.663 L2584.654,905.485 A1236.900,1236.900 0.000 0,0 2580.375,897.745 Z" style="stroke-linecap:round;fill:rgb(157,105,163);" />
<path d="M2552.414,929.707 A1197.000,1197.000 40.000 0,1 2555.928,936.240 L2591.126,917.448 A1236.900,1236.900 0.000 0,0 2587.494,910.697 Z" style="stroke-linecap:round;fill:rgb(176,226,152);" />
<path d="M2556.930,938.120 A1197.000,1197.000 40.000 0,1 2568.122,959.699 L2603.726,941.689 A1236.900,1236.900 0.000 0,0 2592.161,919.391 Z" style="stroke-linecap:round;fill:rgb(243,146,55);" />
<path d="M2567.881,959.224 A1197.000,1197.000 40.000 0,1 2589.621,1004.485 L2625.942,987.968 A1236.900,1236.900 0.000 0,0 2603.477,941.198 Z" style="stroke-linecap:round;fill:rgb(243,146,55);" />
<path d="M2589.967,1005.247 A1197.000,1197.000 40.000 0,1 2606.086,1042.415 L2642.955,1027.163 A1236.900,1236.900 0.000 0,0 2626.300,988.755 Z" style="stroke-linecap:round;fill:rgb(176,226,152);" />
<path d="M2606.710,1043.927 A1197.000,1197.000 40.000 0,1 2632.314,1111.834 L2670.058,1098.895 A1236.900,1236.900 0.000 0,0 2643.600,1028.725 Z" style="stroke-linecap:round;fill:rgb(176,226,152);" />
<path d="M2632.831,1113.345 A1197.000,1197.000 40.000 0,1 2645.863,1153.868 L2684.058,1142.331 A1236.900,1236.900 0.000 0,0 2670.593,1100.457 Z" style="stroke-linecap:round;fill:rgb(134,187,216);" />
<path d="M2646.050,1154.487 A1197.000,1197.000 40.000 0,1 2648.459,1162.582 L2686.741,1151.335 A1236.900,1236.900 0.000 0,0 2684.251,1142.970 Z" style="stroke-linecap:round;fill:rgb(176,226,152);" />
<path d="M2648.983,1164.371 A1197.000,1197.000 40.000 0,1 2650.570,1169.852 L2688.922,1158.847 A1236.900,1236.900 0.000 0,0 2687.282,1153.183 Z" style="stroke-linecap:round;fill:rgb(176,226,152);" />
<path d="M2651.322,1172.485 A1197.000,1197.000 40.000 0,1 2656.155,1189.976 L2694.693,1179.642 A1236.900,1236.900 0.000 0,0 2689.700,1161.568 Z" style="stroke-linecap:round;fill:rgb(176,226,152);" />
<path d="M2656.214,1190.196 A1197.000,1197.000 40.000 0,1 2662.783,1215.845 L2701.543,1206.373 A1236.900,1236.900 0.000 0,0 2694.754,1179.870 Z" style="stroke-linecap:round;fill:rgb(176,226,152);" />
<path d="M2702.119,1208.742 A1236.900,1236.900 40.000 0,1 2704.895,1220.446 L2743.762,1211.428 A1276.800,1276.800 0.000 0,0 2740.897,1199.346 Z" style="stroke-linecap:round;fill:rgb(243,146,55);" />
<path d="M2665.993,1229.315 A1197.000,1197.000 40.000 0,1 2677.155,1282.942 L2716.394,1275.706 A1236.900,1236.900 0.000 0,0 2704.859,1220.293 Z" style="stroke-linecap:round;fill:rgb(176,226,152);" />
<path d="M2677.128,1282.792 A1197.000,1197.000 40.000 0,1 2689.486,1366.088 L2729.135,1361.624 A1236.900,1236.900 0.000 0,0 2716.365,1275.552 Z" style="stroke-linecap:round;fill:rgb(176,226,152);" />
<path d="M2690.000,1370.738 A1197.000,1197.000 40.000 0,1 2691.770,1388.224 L2731.495,1384.499 A1236.900,1236.900 0.000 0,0 2729.667,1366.430 Z" style="stroke-linecap:round;fill:rgb(176,226,152);" />
<path d="M2692.340,1394.475 A1197.000,1197.000 40.000 0,1 2694.589,1424.062 L2734.408,1421.531 A1236.900,1236.900 0.000 0,0 2732.084,1390.958 Z" style="stroke-linecap:round;fill:rgb(176,226,152);" />
<path d="M2735.962,1451.838 A1236.900,1236.900 40.000 0,1 2736.757,1518.809 L2776.652,1519.416 A1276.800,1276.800 0.000 0,0 2775.832,1450.284 Z" style="stroke-linecap:round;fill:rgb(134,187,216);" />
<path d="M2736.704,1521.993 A1236.900,1236.900 40.000 0,1 2736.198,1541.680 L2776.075,1543.025 A1276.800,1276.800 0.000 0,0 2776.598,1522.702 Z" style="stroke-linecap:round;fill:rgb(134,187,216);" />
<path d="M2736.054,1545.727 A1236.900,1236.900 40.000 0,1 2734.438,1577.998 L2774.259,1580.514 A1276.800,1276.800 0.000 0,0 2775.927,1547.202 Z" style="stroke-linecap:round;fill:rgb(134,187,216);" />
<path d="M2694.603,1575.710 A1197.000,1197.000 40.000 0,1 2681.844,1689.880 L2721.239,1696.209 A1236.900,1236.900 0.000 0,0 2734.423,1578.233 Z" style="stroke-linecap:round;fill:rgb(176,226,152);" />
<path d="M2721.045,1697.412 A1236.900,1236.900 40.000 0,1 2719.187,1708.580 L2758.515,1715.308 A1276.800,1276.800 0.000 0,0 2760.433,1703.780 Z" style="stroke-linecap:round;fill:rgb(243,146,55);" />
<path d="M2679.897,1701.626 A1197.000,1197.000 40.000 0,1 2677.307,1716.235 L2716.550,1723.443 A1236.900,1236.900 0.000 0,0 2719.226,1708.347 Z" style="stroke-linecap:round;fill:rgb(134,187,216);" />
<path d="M2677.403,1715.711 A1197.000,1197.000 40.000 0,1 2661.342,1789.990 L2700.053,1799.656 A1236.900,1236.900 0.000 0,0 2716.650,1722.901 Z" style="stroke-linecap:round;fill:rgb(176,226,152);" />
<path d="M2660.917,1791.687 A1197.000,1197.000 40.000 0,1 2657.823,1803.736 L2696.417,1813.860 A1236.900,1236.900 0.000 0,0 2699.614,1801.410 Z" style="stroke-linecap:round;fill:rgb(134,187,216);" />
<path d="M2657.591,1804.619 A1197.000,1197.000 40.000 0,1 2656.538,1808.590 L2695.090,1818.877 A1236.900,1236.900 0.000 0,0 2696.177,1814.773 Z" style="stroke-linecap:round;fill:rgb(134,187,216);" />
<path d="M2656.401,1809.105 A1197.000,1197.000 40.000 0,1 2646.663,1843.472 L2684.885,1854.921 A1236.900,1236.900 0.000 0,0 2694.948,1819.408 Z" style="stroke-linecap:round;fill:rgb(134,187,216);" />
<path d="M2646.597,1843.691 A1197.000,1197.000 40.000 0,1 2644.144,1851.772 L2682.282,1863.497 A1236.900,1236.900 0.000 0,0 2684.817,1855.147 Z" style="stroke-linecap:round;fill:rgb(243,146,55);" />
<path d="M2644.144,1851.772 A1197.000,1197.000 40.000 0,1 2634.710,1881.105 L2672.534,1893.809 A1236.900,1236.900 0.000 0,0 2682.282,1863.497 Z" style="stroke-linecap:round;fill:rgb(176,226,152);" />
<path d="M2633.726,1884.025 A1197.000,1197.000 40.000 0,1 2602.415,1966.358 L2639.162,1981.903 A1236.900,1236.900 0.000 0,0 2671.516,1896.826 Z" style="stroke-linecap:round;fill:rgb(176,226,152);" />
<path d="M2602.015,1967.304 A1197.000,1197.000 40.000 0,1 2598.418,1975.695 L2635.032,1991.552 A1236.900,1236.900 0.000 0,0 2638.749,1982.880 Z" style="stroke-linecap:round;fill:rgb(134,187,216);" />
<path d="M2598.146,1976.324 A1197.000,1197.000 40.000 0,1 2580.024,2016.098 L2616.025,2033.301 A1236.900,1236.900 0.000 0,0 2634.751,1992.201 Z" style="stroke-linecap:round;fill:rgb(134,187,216);" />
<path d="M2580.155,2015.823 A1197.000,1197.000 40.000 0,1 2558.426,2059.056 L2593.707,2077.691 A1236.900,1236.900 0.000 0,0 2616.161,2033.017 Z" style="stroke-linecap:round;fill:rgb(243,146,55);" />
<path d="M2593.615,2077.865 A1236.900,1236.900 40.000 0,1 2554.064,2147.202 L2588.066,2168.080 A1276.800,1276.800 0.000 0,0 2628.893,2096.505 Z" style="stroke-linecap:round;fill:rgb(134,187,216);" />
<path d="M2520.002,2126.422 A1197.000,1197.000 40.000 0,1 2483.039,2182.966 L2515.807,2205.732 A1236.900,1236.900 0.000 0,0 2554.002,2147.303 Z" style="stroke-linecap:round;fill:rgb(243,146,55);" />
<path d="M2483.126,2182.841 A1197.000,1197.000 40.000 0,1 2475.779,2193.300 L2508.305,2216.410 A1236.900,1236.900 0.000 0,0 2515.897,2205.602 Z" style="stroke-linecap:round;fill:rgb(243,146,55);" />
<path d="M2508.464,2216.186 A1236.900,1236.900 40.000 0,1 2493.150,2237.275 L2525.188,2261.058 A1276.800,1276.800 0.000 0,0 2540.995,2239.289 Z" style="stroke-linecap:round;fill:rgb(176,226,152);" />
<path d="M2461.816,2212.544 A1197.000,1197.000 40.000 0,1 2453.256,2223.956 L2485.031,2248.088 A1236.900,1236.900 0.000 0,0 2493.876,2236.296 Z" style="stroke-linecap:round;fill:rgb(134,187,216);" />
<path d="M2484.983,2248.151 A1236.900,1236.900 40.000 0,1 2453.116,2288.347 L2483.862,2313.778 A1276.800,1276.800 0.000 0,0 2516.757,2272.285 Z" style="stroke-linecap:round;fill:rgb(176,226,152);" />
<path d="M2452.916,2288.589 A1236.900,1236.900 40.000 0,1 2448.086,2294.389 L2478.669,2320.015 A1276.800,1276.800 0.000 0,0 2483.655,2314.028 Z" style="stroke-linecap:round;fill:rgb(176,226,152);" />
<path d="M2448.111,2294.359 A1236.900,1236.900 40.000 0,1 2435.421,2309.265 L2465.596,2335.370 A1276.800,1276.800 0.000 0,0 2478.696,2319.984 Z" style="stroke-linecap:round;fill:rgb(243,146,55);" />
<path d="M2406.141,2282.123 A1197.000,1197.000 40.000 0,1 2377.837,2313.763 L2407.098,2340.889 A1236.900,1236.900 0.000 0,0 2436.346,2308.194 Z" style="stroke-linecap:round;fill:rgb(243,146,55);" />
<path d="M2406.296,2341.753 A1236.900,1236.900 40.000 0,1 2385.071,2364.043 L2413.622,2391.916 A1276.800,1276.800 0.000 0,0 2435.532,2368.907 Z" style="stroke-linecap:round;fill:rgb(134,187,216);" />
<path d="M2384.549,2364.577 A1236.900,1236.900 40.000 0,1 2355.978,2392.874 L2383.590,2421.676 A1276.800,1276.800 0.000 0,0 2413.083,2392.467 Z" style="stroke-linecap:round;fill:rgb(243,146,55);" />
<path d="M2355.978,2392.874 A1236.900,1236.900 40.000 0,1 2334.367,2413.101 L2361.282,2442.556 A1276.800,1276.800 0.000 0,0 2383.590,2421.676 Z" style="stroke-linecap:round;fill:rgb(243,146,55);" />
<path d="M2333.467,2413.923 A1236.900,1236.900 40.000 0,1 2325.331,2421.277 L2351.954,2450.995 A1276.800,1276.800 0.000 0,0 2360.353,2443.404 Z" style="stroke-linecap:round;fill:rgb(176,226,152);" />
<path d="M2299.415,2390.923 A1197.000,1197.000 40.000 0,1 2269.683,2416.732 L2295.339,2447.290 A1236.900,1236.900 0.000 0,0 2326.062,2420.621 Z" style="stroke-linecap:round;fill:rgb(243,146,55);" />
<path d="M2294.616,2447.896 A1236.900,1236.900 40.000 0,1 2271.614,2466.713 L2296.505,2497.897 A1276.800,1276.800 0.000 0,0 2320.249,2478.474 Z" style="stroke-linecap:round;fill:rgb(134,187,216);" />
<path d="M2271.337,2466.933 A1236.900,1236.900 40.000 0,1 2259.387,2476.347 L2283.883,2507.842 A1276.800,1276.800 0.000 0,0 2296.219,2498.125 Z" style="stroke-linecap:round;fill:rgb(243,146,55);" />
<path d="M2260.751,2475.284 A1236.900,1236.900 40.000 0,1 2246.444,2486.277 L2270.523,2518.093 A1276.800,1276.800 0.000 0,0 2285.292,2506.745 Z" style="stroke-linecap:round;fill:rgb(134,187,216);" />
<path d="M2245.848,2486.728 A1236.900,1236.900 40.000 0,1 2228.996,2499.243 L2252.512,2531.477 A1276.800,1276.800 0.000 0,0 2269.908,2518.558 Z" style="stroke-linecap:round;fill:rgb(176,226,152);" />
<path d="M2226.930,2500.747 A1236.900,1236.900 40.000 0,1 2194.698,2523.384 L2217.108,2556.397 A1276.800,1276.800 0.000 0,0 2250.379,2533.029 Z" style="stroke-linecap:round;fill:rgb(176,226,152);" />
<path d="M2197.493,2521.482 A1236.900,1236.900 40.000 0,1 2179.269,2533.690 L2201.181,2567.035 A1276.800,1276.800 0.000 0,0 2219.993,2554.433 Z" style="stroke-linecap:round;fill:rgb(176,226,152);" />
<path d="M2155.481,2501.576 A1197.000,1197.000 40.000 0,1 2142.631,2509.868 L2164.052,2543.531 A1236.900,1236.900 0.000 0,0 2177.330,2534.962 Z" style="stroke-linecap:round;fill:rgb(243,146,55);" />
<path d="M2160.533,2545.762 A1236.900,1236.900 40.000 0,1 2027.566,2618.747 L2044.585,2654.836 A1276.800,1276.800 0.000 0,0 2181.841,2579.496 Z" style="stroke-linecap:round;fill:rgb(176,226,152);" />
<path d="M2010.686,2582.594 A1197.000,1197.000 40.000 0,1 1992.864,2590.822 L2009.293,2627.183 A1236.900,1236.900 0.000 0,0 2027.709,2618.680 Z" style="stroke-linecap:round;fill:rgb(134,187,216);" />
<path d="M2008.827,2627.394 A1236.900,1236.900 40.000 0,1 1988.322,2636.426 L2004.074,2673.084 A1276.800,1276.800 0.000 0,0 2025.241,2663.761 Z" style="stroke-linecap:round;fill:rgb(243,146,55);" />
<path d="M1972.465,2599.812 A1197.000,1197.000 40.000 0,1 1938.164,2613.922 L1952.770,2651.052 A1236.900,1236.900 0.000 0,0 1988.214,2636.472 Z" style="stroke-linecap:round;fill:rgb(134,187,216);" />
<path d="M1938.164,2613.922 A1197.000,1197.000 40.000 0,1 1852.445,2643.937 L1864.193,2682.068 A1236.900,1236.900 0.000 0,0 1952.770,2651.052 Z" style="stroke-linecap:round;fill:rgb(243,146,55);" />
<path d="M1857.275,2684.178 A1236.900,1236.900 40.000 0,1 1833.381,2691.125 L1844.135,2729.548 A1276.800,1276.800 0.000 0,0 1868.799,2722.377 Z" style="stroke-linecap:round;fill:rgb(176,226,152);" />
<path d="M1833.381,2691.125 A1236.900,1236.900 40.000 0,1 1797.463,2700.599 L1807.059,2739.328 A1276.800,1276.800 0.000 0,0 1844.135,2729.548 Z" style="stroke-linecap:round;fill:rgb(243,146,55);" />
<path d="M1796.051,2700.948 A1236.900,1236.900 40.000 0,1 1779.191,2704.979 L1788.197,2743.849 A1276.800,1276.800 0.000 0,0 1805.601,2739.688 Z" style="stroke-linecap:round;fill:rgb(134,187,216);" />
<path d="M1777.544,2705.359 A1236.900,1236.900 40.000 0,1 1679.522,2723.803 L1685.313,2763.280 A1276.800,1276.800 0.000 0,0 1786.497,2744.242 Z" style="stroke-linecap:round;fill:rgb(176,226,152);" />
<path d="M1675.312,2684.092 A1197.000,1197.000 40.000 0,1 1658.699,2686.433 L1663.989,2725.981 A1236.900,1236.900 0.000 0,0 1681.155,2723.562 Z" style="stroke-linecap:round;fill:rgb(243,146,55);" />
<path d="M1664.301,2725.939 A1236.900,1236.900 40.000 0,1 1636.911,2729.299 L1641.328,2768.954 A1276.800,1276.800 0.000 0,0 1669.601,2765.486 Z" style="stroke-linecap:round;fill:rgb(243,146,55);" />
<path d="M1636.950,2729.295 A1236.900,1236.900 40.000 0,1 1611.254,2731.886 L1614.843,2771.625 A1276.800,1276.800 0.000 0,0 1641.368,2768.950 Z" style="stroke-linecap:round;fill:rgb(176,226,152);" />
<path d="M1610.041,2731.995 A1236.900,1236.900 40.000 0,1 1517.493,2736.776 L1518.057,2776.672 A1276.800,1276.800 0.000 0,0 1613.590,2771.737 Z" style="stroke-linecap:round;fill:rgb(176,226,152);" />
<path d="M1515.960,2736.797 A1236.900,1236.900 40.000 0,1 1440.744,2735.480 L1438.832,2775.334 A1276.800,1276.800 0.000 0,0 1516.475,2776.694 Z" style="stroke-linecap:round;fill:rgb(134,187,216);" />
<path d="M1439.723,2735.430 A1236.900,1236.900 40.000 0,1 1420.649,2734.352 L1418.089,2774.170 A1276.800,1276.800 0.000 0,0 1437.778,2775.283 Z" style="stroke-linecap:round;fill:rgb(176,226,152);" />
<path d="M1424.651,2694.626 A1197.000,1197.000 40.000 0,1 1389.949,2691.930 L1386.280,2731.661 A1236.900,1236.900 0.000 0,0 1422.139,2734.447 Z" style="stroke-linecap:round;fill:rgb(134,187,216);" />
<path d="M1384.675,2731.512 A1236.900,1236.900 40.000 0,1 1359.574,2728.903 L1355.044,2768.545 A1276.800,1276.800 0.000 0,0 1380.955,2771.238 Z" style="stroke-linecap:round;fill:rgb(176,226,152);" />
<path d="M1359.730,2728.921 A1236.900,1236.900 40.000 0,1 1330.597,2725.245 L1325.133,2764.769 A1276.800,1276.800 0.000 0,0 1355.205,2768.563 Z" style="stroke-linecap:round;fill:rgb(134,187,216);" />
<path d="M1336.062,2685.721 A1197.000,1197.000 40.000 0,1 1264.955,2673.696 L1257.120,2712.819 A1236.900,1236.900 0.000 0,0 1330.597,2725.245 Z" style="stroke-linecap:round;fill:rgb(134,187,216);" />
<path d="M1263.687,2673.442 A1197.000,1197.000 40.000 0,1 1231.558,2666.511 L1222.610,2705.395 A1236.900,1236.900 0.000 0,0 1255.810,2712.556 Z" style="stroke-linecap:round;fill:rgb(176,226,152);" />
<path d="M1230.446,2666.255 A1197.000,1197.000 40.000 0,1 1169.469,2650.460 L1158.451,2688.809 A1236.900,1236.900 0.000 0,0 1221.461,2705.130 Z" style="stroke-linecap:round;fill:rgb(134,187,216);" />
<path d="M1168.628,2650.218 A1197.000,1197.000 40.000 0,1 1152.103,2645.328 L1140.507,2683.506 A1236.900,1236.900 0.000 0,0 1157.582,2688.559 Z" style="stroke-linecap:round;fill:rgb(134,187,216);" />
<path d="M1151.375,2645.107 A1197.000,1197.000 40.000 0,1 1126.892,2637.365 L1114.455,2675.277 A1236.900,1236.900 0.000 0,0 1139.754,2683.277 Z" style="stroke-linecap:round;fill:rgb(134,187,216);" />
<path d="M1127.037,2637.413 A1197.000,1197.000 40.000 0,1 1118.588,2634.608 L1105.875,2672.428 A1236.900,1236.900 0.000 0,0 1114.605,2675.326 Z" style="stroke-linecap:round;fill:rgb(243,146,55);" />
<path d="M1118.084,2634.438 A1197.000,1197.000 40.000 0,1 1049.086,2608.822 L1034.055,2645.782 A1236.900,1236.900 0.000 0,0 1105.353,2672.252 Z" style="stroke-linecap:round;fill:rgb(134,187,216);" />
<path d="M1047.254,2608.075 A1197.000,1197.000 40.000 0,1 1017.629,2595.503 L1001.550,2632.020 A1236.900,1236.900 0.000 0,0 1032.162,2645.011 Z" style="stroke-linecap:round;fill:rgb(176,226,152);" />
<path d="M1000.219,2631.433 A1236.900,1236.900 40.000 0,1 982.803,2623.579 L966.120,2659.823 A1276.800,1276.800 0.000 0,0 984.097,2667.931 Z" style="stroke-linecap:round;fill:rgb(176,226,152);" />
<path d="M999.625,2587.398 A1197.000,1197.000 40.000 0,1 961.279,2568.919 L943.321,2604.550 A1236.900,1236.900 0.000 0,0 982.946,2623.644 Z" style="stroke-linecap:round;fill:rgb(134,187,216);" />
<path d="M960.498,2568.525 A1197.000,1197.000 40.000 0,1 889.358,2529.527 L869.003,2563.844 A1236.900,1236.900 0.000 0,0 942.514,2604.143 Z" style="stroke-linecap:round;fill:rgb(243,146,55);" />
<path d="M867.212,2562.780 A1236.900,1236.900 40.000 0,1 837.773,2544.690 L816.411,2578.390 A1276.800,1276.800 0.000 0,0 846.799,2597.063 Z" style="stroke-linecap:round;fill:rgb(176,226,152);" />
<path d="M859.778,2511.398 A1197.000,1197.000 40.000 0,1 850.069,2505.186 L828.404,2538.692 A1236.900,1236.900 0.000 0,0 838.438,2545.111 Z" style="stroke-linecap:round;fill:rgb(243,146,55);" />
<path d="M850.069,2505.186 A1197.000,1197.000 40.000 0,1 767.034,2446.345 L742.601,2477.890 A1236.900,1236.900 0.000 0,0 828.404,2538.692 Z" style="stroke-linecap:round;fill:rgb(243,146,55);" />
<path d="M742.166,2477.553 A1236.900,1236.900 40.000 0,1 712.790,2454.055 L687.396,2484.831 A1276.800,1276.800 0.000 0,0 717.720,2509.087 Z" style="stroke-linecap:round;fill:rgb(243,146,55);" />
<path d="M738.154,2423.255 A1197.000,1197.000 40.000 0,1 721.468,2409.229 L695.517,2439.537 A1236.900,1236.900 0.000 0,0 712.759,2454.030 Z" style="stroke-linecap:round;fill:rgb(134,187,216);" />
<path d="M720.804,2408.660 A1197.000,1197.000 40.000 0,1 714.671,2403.364 L688.493,2433.476 A1236.900,1236.900 0.000 0,0 694.831,2438.948 Z" style="stroke-linecap:round;fill:rgb(243,146,55);" />
<path d="M711.661,2400.739 A1197.000,1197.000 40.000 0,1 703.875,2393.865 L677.338,2423.660 A1236.900,1236.900 0.000 0,0 685.383,2430.763 Z" style="stroke-linecap:round;fill:rgb(243,146,55);" />
<path d="M703.421,2393.460 A1197.000,1197.000 40.000 0,1 698.832,2389.347 L672.126,2418.992 A1236.900,1236.900 0.000 0,0 676.868,2423.242 Z" style="stroke-linecap:round;fill:rgb(243,146,55);" />
<path d="M699.142,2389.627 A1197.000,1197.000 40.000 0,1 691.118,2382.337 L664.155,2411.748 A1236.900,1236.900 0.000 0,0 672.447,2419.281 Z" style="stroke-linecap:round;fill:rgb(134,187,216);" />
<path d="M691.594,2382.774 A1197.000,1197.000 40.000 0,1 660.311,2353.072 L632.322,2381.508 A1236.900,1236.900 0.000 0,0 664.648,2412.199 Z" style="stroke-linecap:round;fill:rgb(134,187,216);" />
<path d="M660.257,2353.019 A1197.000,1197.000 40.000 0,1 643.746,2336.444 L615.204,2364.325 A1236.900,1236.900 0.000 0,0 632.266,2381.453 Z" style="stroke-linecap:round;fill:rgb(243,146,55);" />
<path d="M614.820,2363.931 A1236.900,1236.900 40.000 0,1 575.204,2321.385 L545.372,2347.882 A1276.800,1276.800 0.000 0,0 586.265,2391.800 Z" style="stroke-linecap:round;fill:rgb(176,226,152);" />
<path d="M605.541,2295.458 A1197.000,1197.000 40.000 0,1 599.651,2288.784 L569.639,2315.077 A1236.900,1236.900 0.000 0,0 575.726,2321.973 Z" style="stroke-linecap:round;fill:rgb(134,187,216);" />
<path d="M599.651,2288.784 A1197.000,1197.000 40.000 0,1 590.982,2278.778 L560.681,2304.737 A1236.900,1236.900 0.000 0,0 569.639,2315.077 Z" style="stroke-linecap:round;fill:rgb(243,146,55);" />
<path d="M560.733,2304.797 A1236.900,1236.900 40.000 0,1 528.755,2265.902 L497.425,2290.608 A1276.800,1276.800 0.000 0,0 530.434,2330.758 Z" style="stroke-linecap:round;fill:rgb(176,226,152);" />
<path d="M530.486,2268.091 A1236.900,1236.900 40.000 0,1 516.875,2250.591 L485.161,2274.803 A1276.800,1276.800 0.000 0,0 499.211,2292.868 Z" style="stroke-linecap:round;fill:rgb(134,187,216);" />
<path d="M516.422,2249.997 A1236.900,1236.900 40.000 0,1 489.696,2213.588 L457.106,2236.607 A1276.800,1276.800 0.000 0,0 484.693,2274.190 Z" style="stroke-linecap:round;fill:rgb(176,226,152);" />
<path d="M489.787,2213.717 A1236.900,1236.900 40.000 0,1 416.899,2097.340 L381.961,2116.609 A1276.800,1276.800 0.000 0,0 457.200,2236.740 Z" style="stroke-linecap:round;fill:rgb(176,226,152);" />
<path d="M390.985,1950.439 A1197.000,1197.000 40.000 0,1 370.402,1896.002 L332.749,1909.202 A1236.900,1236.900 0.000 0,0 354.018,1965.454 Z" style="stroke-linecap:round;fill:rgb(243,146,55);" />
<path d="M369.774,1894.207 A1197.000,1197.000 40.000 0,1 365.666,1882.224 L327.855,1894.965 A1236.900,1236.900 0.000 0,0 332.100,1907.347 Z" style="stroke-linecap:round;fill:rgb(134,187,216);" />
<path d="M365.666,1882.224 A1197.000,1197.000 40.000 0,1 360.420,1866.289 L322.434,1878.498 A1236.900,1236.900 0.000 0,0 327.855,1894.965 Z" style="stroke-linecap:round;fill:rgb(243,146,55);" />
<path d="M360.420,1866.289 A1197.000,1197.000 40.000 0,1 350.220,1832.890 L311.894,1843.986 A1236.900,1236.900 0.000 0,0 322.434,1878.498 Z" style="stroke-linecap:round;fill:rgb(176,226,152);" />
<path d="M350.623,1834.278 A1197.000,1197.000 40.000 0,1 348.138,1825.612 L309.743,1836.466 A1236.900,1236.900 0.000 0,0 312.311,1845.421 Z" style="stroke-linecap:round;fill:rgb(134,187,216);" />
<path d="M347.807,1824.440 A1197.000,1197.000 40.000 0,1 346.487,1819.714 L308.037,1830.371 A1236.900,1236.900 0.000 0,0 309.401,1835.255 Z" style="stroke-linecap:round;fill:rgb(134,187,216);" />
<path d="M308.058,1830.447 A1236.900,1236.900 40.000 0,1 303.573,1813.823 L264.979,1823.947 A1276.800,1276.800 0.000 0,0 269.608,1841.106 Z" style="stroke-linecap:round;fill:rgb(176,226,152);" />
<path d="M342.497,1804.951 A1197.000,1197.000 40.000 0,1 334.223,1771.611 L295.364,1780.665 A1236.900,1236.900 0.000 0,0 303.913,1815.116 Z" style="stroke-linecap:round;fill:rgb(134,187,216);" />
<path d="M295.123,1779.631 A1236.900,1236.900 40.000 0,1 290.453,1758.683 L251.435,1767.027 A1276.800,1276.800 0.000 0,0 256.256,1788.652 Z" style="stroke-linecap:round;fill:rgb(176,226,152);" />
<path d="M290.420,1758.529 A1236.900,1236.900 40.000 0,1 286.411,1739.006 L247.263,1746.716 A1276.800,1276.800 0.000 0,0 251.401,1766.869 Z" style="stroke-linecap:round;fill:rgb(134,187,216);" />
<path d="M286.086,1737.347 A1236.900,1236.900 40.000 0,1 282.253,1716.829 L242.971,1723.823 A1276.800,1276.800 0.000 0,0 246.927,1745.004 Z" style="stroke-linecap:round;fill:rgb(176,226,152);" />
<path d="M281.945,1715.087 A1236.900,1236.900 40.000 0,1 277.539,1688.443 L238.105,1694.522 A1276.800,1276.800 0.000 0,0 242.652,1722.025 Z" style="stroke-linecap:round;fill:rgb(176,226,152);" />
<path d="M277.235,1686.462 A1236.900,1236.900 40.000 0,1 272.856,1655.043 L233.270,1660.045 A1276.800,1276.800 0.000 0,0 237.791,1692.477 Z" style="stroke-linecap:round;fill:rgb(176,226,152);" />
<path d="M272.490,1652.118 A1236.900,1236.900 40.000 0,1 271.639,1645.093 L232.015,1649.774 A1276.800,1276.800 0.000 0,0 232.892,1657.025 Z" style="stroke-linecap:round;fill:rgb(157,105,163);" />
<path d="M311.282,1640.564 A1197.000,1197.000 40.000 0,1 307.974,1609.011 L268.240,1612.644 A1236.900,1236.900 0.000 0,0 271.658,1645.249 Z" style="stroke-linecap:round;fill:rgb(134,187,216);" />
<path d="M305.831,1582.278 A1197.000,1197.000 40.000 0,1 304.357,1556.985 L264.502,1558.884 A1236.900,1236.900 0.000 0,0 266.025,1585.020 Z" style="stroke-linecap:round;fill:rgb(176,226,152);" />
<path d="M264.139,1550.677 A1236.900,1236.900 40.000 0,1 263.592,1534.884 L223.708,1536.009 A1276.800,1276.800 0.000 0,0 224.272,1552.311 Z" style="stroke-linecap:round;fill:rgb(134,187,216);" />
<path d="M263.552,1533.430 A1236.900,1236.900 40.000 0,1 263.142,1510.202 L223.243,1510.531 A1276.800,1276.800 0.000 0,0 223.666,1534.508 Z" style="stroke-linecap:round;fill:rgb(134,187,216);" />
<path d="M263.136,1509.455 A1236.900,1236.900 40.000 0,1 263.100,1500.610 L223.200,1500.630 A1276.800,1276.800 0.000 0,0 223.237,1509.760 Z" style="stroke-linecap:round;fill:rgb(176,226,152);" />
<path d="M303.004,1497.052 A1197.000,1197.000 40.000 0,1 303.756,1457.460 L263.881,1456.042 A1236.900,1236.900 0.000 0,0 263.104,1496.954 Z" style="stroke-linecap:round;fill:rgb(176,226,152);" />
<path d="M263.947,1454.235 A1236.900,1236.900 40.000 0,1 264.586,1439.389 L224.734,1437.434 A1276.800,1276.800 0.000 0,0 224.074,1452.758 Z" style="stroke-linecap:round;fill:rgb(243,146,55);" />
<path d="M264.565,1439.821 A1236.900,1236.900 40.000 0,1 266.274,1411.452 L226.476,1408.596 A1276.800,1276.800 0.000 0,0 224.712,1437.880 Z" style="stroke-linecap:round;fill:rgb(176,226,152);" />
<path d="M269.617,1373.194 A1236.900,1236.900 40.000 0,1 272.331,1349.171 L232.728,1344.306 A1276.800,1276.800 0.000 0,0 229.927,1369.103 Z" style="stroke-linecap:round;fill:rgb(176,226,152);" />
<path d="M275.253,1327.035 A1236.900,1236.900 40.000 0,1 286.229,1261.921 L247.075,1254.241 A1276.800,1276.800 0.000 0,0 235.745,1321.456 Z" style="stroke-linecap:round;fill:rgb(176,226,152);" />
<path d="M286.533,1260.378 A1236.900,1236.900 40.000 0,1 294.804,1221.749 L255.927,1212.773 A1276.800,1276.800 0.000 0,0 247.389,1252.648 Z" style="stroke-linecap:round;fill:rgb(176,226,152);" />
<path d="M333.139,1089.686 A1236.900,1236.900 40.000 0,1 345.944,1054.942 L308.717,1040.585 A1276.800,1276.800 0.000 0,0 295.499,1076.450 Z" style="stroke-linecap:round;fill:rgb(176,226,152);" />
<path d="M357.075,1027.091 A1236.900,1236.900 40.000 0,1 371.260,994.167 L334.849,977.850 A1276.800,1276.800 0.000 0,0 320.206,1011.836 Z" style="stroke-linecap:round;fill:rgb(176,226,152);" />
<path d="M372.259,991.944 A1236.900,1236.900 40.000 0,1 397.965,938.360 L362.415,920.243 A1276.800,1276.800 0.000 0,0 335.880,975.555 Z" style="stroke-linecap:round;fill:rgb(176,226,152);" />
<path d="M402.009,930.494 A1236.900,1236.900 40.000 0,1 434.086,872.506 L399.702,852.264 A1276.800,1276.800 0.000 0,0 366.590,912.123 Z" style="stroke-linecap:round;fill:rgb(134,187,216);" />
<path d="M436.146,869.020 A1236.900,1236.900 40.000 0,1 455.762,837.060 L422.077,815.675 A1276.800,1276.800 0.000 0,0 401.828,848.666 Z" style="stroke-linecap:round;fill:rgb(176,226,152);" />
<path d="M457.557,834.241 A1236.900,1236.900 40.000 0,1 468.419,817.532 L435.143,795.517 A1276.800,1276.800 0.000 0,0 423.930,812.765 Z" style="stroke-linecap:round;fill:rgb(176,226,152);" />
<path d="M469.788,815.468 A1236.900,1236.900 40.000 0,1 481.888,797.598 L449.045,774.940 A1276.800,1276.800 0.000 0,0 436.555,793.386 Z" style="stroke-linecap:round;fill:rgb(243,146,55);" />
<path d="M483.095,795.852 A1236.900,1236.900 40.000 0,1 501.417,770.100 L469.205,746.555 A1276.800,1276.800 0.000 0,0 450.291,773.137 Z" style="stroke-linecap:round;fill:rgb(176,226,152);" />
<path d="M503.555,767.184 A1236.900,1236.900 40.000 0,1 519.288,746.258 L487.653,721.944 A1276.800,1276.800 0.000 0,0 471.412,743.544 Z" style="stroke-linecap:round;fill:rgb(134,187,216);" />
<path d="M538.124,722.365 A1236.900,1236.900 40.000 0,1 545.657,713.138 L514.872,687.756 A1276.800,1276.800 0.000 0,0 507.096,697.280 Z" style="stroke-linecap:round;fill:rgb(176,226,152);" />
<path d="M547.285,711.169 A1236.900,1236.900 40.000 0,1 568.913,685.753 L538.878,659.487 A1276.800,1276.800 0.000 0,0 516.552,685.723 Z" style="stroke-linecap:round;fill:rgb(176,226,152);" />
<path d="M571.532,682.768 A1236.900,1236.900 40.000 0,1 598.910,652.675 L569.843,625.342 A1276.800,1276.800 0.000 0,0 541.581,656.406 Z" style="stroke-linecap:round;fill:rgb(176,226,152);" />
<path d="M602.338,649.045 A1236.900,1236.900 40.000 0,1 614.599,636.295 L586.038,608.433 A1276.800,1276.800 0.000 0,0 573.381,621.595 Z" style="stroke-linecap:round;fill:rgb(176,226,152);" />
<path d="M616.936,633.906 A1236.900,1236.900 40.000 0,1 632.013,618.797 L604.013,590.371 A1276.800,1276.800 0.000 0,0 588.450,605.968 Z" style="stroke-linecap:round;fill:rgb(134,187,216);" />
<path d="M669.267,583.592 A1236.900,1236.900 40.000 0,1 700.484,556.233 L674.693,525.789 A1276.800,1276.800 0.000 0,0 642.469,554.030 Z" style="stroke-linecap:round;fill:rgb(176,226,152);" />
<path d="M702.526,554.507 A1236.900,1236.900 40.000 0,1 775.744,497.316 L752.381,464.972 A1276.800,1276.800 0.000 0,0 676.801,524.008 Z" style="stroke-linecap:round;fill:rgb(176,226,152);" />
<path d="M816.007,469.430 A1236.900,1236.900 40.000 0,1 851.575,446.688 L830.658,412.710 A1276.800,1276.800 0.000 0,0 793.942,436.186 Z" style="stroke-linecap:round;fill:rgb(176,226,152);" />
<path d="M1169.762,308.000 A1236.900,1236.900 40.000 0,1 1187.298,303.280 L1177.211,264.676 A1276.800,1276.800 0.000 0,0 1159.109,269.548 Z" style="stroke-linecap:round;fill:rgb(157,105,163);" />
<path d="M1215.871,296.176 A1236.900,1236.900 40.000 0,1 1236.226,291.553 L1227.717,252.571 A1276.800,1276.800 0.000 0,0 1206.706,257.343 Z" style="stroke-linecap:round;fill:rgb(157,105,163);" />
<path d="M1240.568,290.613 A1236.900,1236.900 40.000 0,1 1291.284,280.837 L1284.551,241.509 A1276.800,1276.800 0.000 0,0 1232.199,251.601 Z" style="stroke-linecap:round;fill:rgb(157,105,163);" />
<path d="M1300.395,279.312 A1236.900,1236.900 40.000 0,1 1369.224,270.033 L1365.005,230.357 A1276.800,1276.800 0.000 0,0 1293.956,239.935 Z" style="stroke-linecap:round;fill:rgb(157,105,163);" />
<path d="M1372.703,269.668 A1236.900,1236.900 40.000 0,1 1413.823,266.106 L1411.043,226.303 A1276.800,1276.800 0.000 0,0 1368.597,229.980 Z" style="stroke-linecap:round;fill:rgb(157,105,163);" />
</g>
<g id="highlighttrack_2">
<path d="M1630.052,631.887 A877.800,877.800 40.000 0,1 1633.554,632.419 L1694.261,238.065 A1276.800,1276.800 0.000 0,0 1689.166,237.291 Z" style="stroke-linecap:round;fill:rgb(247,178,189);" />
<path d="M722.639,1907.728 A877.800,877.800 40.000 0,1 722.315,1907.110 L368.822,2092.161 A1276.800,1276.800 0.000 0,0 369.293,2093.059 Z" style="stroke-linecap:round;fill:rgb(247,178,189);" />
<path d="M682.844,1820.606 A877.800,877.800 40.000 0,1 682.264,1819.126 L310.566,1964.183 A1276.800,1276.800 0.000 0,0 311.409,1966.337 Z" style="stroke-linecap:round;fill:rgb(247,178,189);" />
<path d="M651.642,1725.438 A877.800,877.800 40.000 0,1 651.356,1724.359 L265.609,1826.340 A1276.800,1276.800 0.000 0,0 266.025,1827.909 Z" style="stroke-linecap:round;fill:rgb(247,178,189);" />
<path d="M651.642,1725.438 A877.800,877.800 40.000 0,1 651.228,1723.873 L265.423,1825.634 A1276.800,1276.800 0.000 0,0 266.025,1827.909 Z" style="stroke-linecap:round;fill:rgb(247,178,189);" />
<path d="M651.592,1725.249 A877.800,877.800 40.000 0,1 651.164,1723.631 L265.330,1825.281 A1276.800,1276.800 0.000 0,0 265.952,1827.635 Z" style="stroke-linecap:round;fill:rgb(247,178,189);" />
<path d="M651.399,1724.521 A877.800,877.800 40.000 0,1 651.150,1723.577 L265.309,1825.202 A1276.800,1276.800 0.000 0,0 265.672,1826.576 Z" style="stroke-linecap:round;fill:rgb(247,178,189);" />
<path d="M639.745,1674.623 A877.800,877.800 40.000 0,1 639.490,1673.366 L248.349,1752.168 A1276.800,1276.800 0.000 0,0 248.719,1753.998 Z" style="stroke-linecap:round;fill:rgb(247,178,189);" />
<path d="M623.106,1539.866 A877.800,877.800 40.000 0,1 623.031,1538.194 L224.409,1555.555 A1276.800,1276.800 0.000 0,0 224.517,1557.987 Z" style="stroke-linecap:round;fill:rgb(247,178,189);" />
<path d="M623.106,1539.866 A877.800,877.800 40.000 0,1 623.025,1538.055 L224.400,1555.352 A1276.800,1276.800 0.000 0,0 224.517,1557.987 Z" style="stroke-linecap:round;fill:rgb(247,178,189);" />
<path d="M623.097,1539.671 A877.800,877.800 40.000 0,1 623.025,1538.055 L224.400,1555.352 A1276.800,1276.800 0.000 0,0 224.505,1557.703 Z" style="stroke-linecap:round;fill:rgb(247,178,189);" />
<path d="M624.476,1436.826 A877.800,877.800 40.000 0,1 624.650,1434.461 L226.764,1404.670 A1276.800,1276.800 0.000 0,0 226.511,1408.110 Z" style="stroke-linecap:round;fill:rgb(247,178,189);" />
<path d="M624.476,1436.826 A877.800,877.800 40.000 0,1 624.650,1434.461 L226.764,1404.670 A1276.800,1276.800 0.000 0,0 226.511,1408.110 Z" style="stroke-linecap:round;fill:rgb(247,178,189);" />
<path d="M624.476,1436.826 A877.800,877.800 40.000 0,1 624.650,1434.461 L226.764,1404.670 A1276.800,1276.800 0.000 0,0 226.511,1408.110 Z" style="stroke-linecap:round;fill:rgb(247,178,189);" />
<path d="M718.952,1099.380 A877.800,877.800 40.000 0,1 719.270,1098.760 L364.393,916.377 A1276.800,1276.800 0.000 0,0 363.930,917.280 Z" style="stroke-linecap:round;fill:rgb(247,178,189);" />
<path d="M759.153,1029.173 A877.800,877.800 40.000 0,1 759.542,1028.561 L422.970,814.271 A1276.800,1276.800 0.000 0,0 422.404,815.161 Z" style="stroke-linecap:round;fill:rgb(247,178,189);" />
<path d="M818.291,947.003 A877.800,877.800 40.000 0,1 819.224,945.855 L509.780,693.971 A1276.800,1276.800 0.000 0,0 508.424,695.640 Z" style="stroke-linecap:round;fill:rgb(247,178,189);" />
<path d="M884.924,873.730 A877.800,877.800 40.000 0,1 885.800,872.870 L606.618,587.812 A1276.800,1276.800 0.000 0,0 605.344,589.062 Z" style="stroke-linecap:round;fill:rgb(247,178,189);" />
<path d="M910.179,849.890 A877.800,877.800 40.000 0,1 910.778,849.346 L642.950,553.594 A1276.800,1276.800 0.000 0,0 642.078,554.385 Z" style="stroke-linecap:round;fill:rgb(247,178,189);" />
<path d="M1010.201,771.557 A877.800,877.800 40.000 0,1 1014.074,768.967 L793.199,436.680 A1276.800,1276.800 0.000 0,0 787.565,440.446 Z" style="stroke-linecap:round;fill:rgb(247,178,189);" />
<path d="M1352.869,634.618 A877.800,877.800 40.000 0,1 1356.363,634.032 L1291.073,240.410 A1276.800,1276.800 0.000 0,0 1285.991,241.263 Z" style="stroke-linecap:round;fill:rgb(247,178,189);" />
<path d="M1480.417,622.418 A877.800,877.800 40.000 0,1 1483.764,622.350 L1476.384,223.418 A1276.800,1276.800 0.000 0,0 1471.516,223.518 Z" style="stroke-linecap:round;fill:rgb(247,178,189);" />
</g>
<g id="highlighttrack_3">
<path d="M1782.874,378.009 A1157.100,1157.100 40.000 0,1 1782.909,378.018 L1821.931,223.262 A1316.700,1316.700 0.000 0,0 1821.891,223.252 Z" style="stroke-width:2.0;stroke:rgb(84,101,255);stroke-linecap:round;fill:rgb(150,150,150);fill-opacity:0.67;" />
<path d="M2236.877,607.872 A1157.100,1157.100 40.000 0,1 2236.905,607.895 L2338.547,484.846 A1316.700,1316.700 0.000 0,0 2338.515,484.819 Z" style="stroke-width:2.0;stroke:rgb(84,101,255);stroke-linecap:round;fill:rgb(150,150,150);fill-opacity:0.67;" />
<path d="M2287.784,652.487 A1157.100,1157.100 40.000 0,1 2287.811,652.513 L2396.474,535.618 A1316.700,1316.700 0.000 0,0 2396.443,535.589 Z" style="stroke-width:2.0;stroke:rgb(84,101,255);stroke-linecap:round;fill:rgb(150,150,150);fill-opacity:0.67;" />
<path d="M2342.475,706.832 A1157.100,1157.100 40.000 0,1 2342.501,706.859 L2458.708,597.460 A1316.700,1316.700 0.000 0,0 2458.679,597.429 Z" style="stroke-width:2.0;stroke:rgb(215,38,56);stroke-linecap:round;fill:rgb(150,150,150);fill-opacity:0.67;" />
<path d="M2451.256,841.219 A1157.100,1157.100 40.000 0,1 2451.277,841.250 L2582.488,750.387 A1316.700,1316.700 0.000 0,0 2582.464,750.353 Z" style="stroke-width:2.0;stroke:rgb(215,38,56);stroke-linecap:round;fill:rgb(150,150,150);fill-opacity:0.67;" />
<path d="M2465.392,862.113 A1157.100,1157.100 40.000 0,1 2465.412,862.144 L2598.572,774.164 A1316.700,1316.700 0.000 0,0 2598.549,774.129 Z" style="stroke-width:2.0;stroke:rgb(90,255,21);stroke-linecap:round;fill:rgb(150,150,150);fill-opacity:0.67;" />
<path d="M2528.655,970.143 A1157.100,1157.100 40.000 0,1 2528.672,970.176 L2670.558,897.097 A1316.700,1316.700 0.000 0,0 2670.539,897.059 Z" style="stroke-width:2.0;stroke:rgb(215,38,56);stroke-linecap:round;fill:rgb(150,150,150);fill-opacity:0.67;" />
<path d="M2570.881,1061.715 A1157.100,1157.100 40.000 0,1 2570.895,1061.749 L2718.605,1001.301 A1316.700,1316.700 0.000 0,0 2718.589,1001.262 Z" style="stroke-width:2.0;stroke:rgb(84,101,255);stroke-linecap:round;fill:rgb(150,150,150);fill-opacity:0.67;" />
<path d="M2586.283,1101.414 A1157.100,1157.100 40.000 0,1 2586.295,1101.449 L2736.129,1046.476 A1316.700,1316.700 0.000 0,0 2736.115,1046.437 Z" style="stroke-width:2.0;stroke:rgb(84,101,255);stroke-linecap:round;fill:rgb(150,150,150);fill-opacity:0.67;" />
<path d="M2590.058,1111.858 A1157.100,1157.100 40.000 0,1 2590.070,1111.893 L2740.425,1058.361 A1316.700,1316.700 0.000 0,0 2740.411,1058.322 Z" style="stroke-width:2.0;stroke:rgb(84,101,255);stroke-linecap:round;fill:rgb(150,150,150);fill-opacity:0.67;" />
<path d="M2595.580,1127.731 A1157.100,1157.100 40.000 0,1 2595.592,1127.766 L2746.708,1076.423 A1316.700,1316.700 0.000 0,0 2746.695,1076.383 Z" style="stroke-width:2.0;stroke:rgb(215,38,56);stroke-linecap:round;fill:rgb(150,150,150);fill-opacity:0.67;" />
<path d="M2595.817,1128.427 A1157.100,1157.100 40.000 0,1 2595.828,1128.462 L2746.977,1077.215 A1316.700,1316.700 0.000 0,0 2746.964,1077.176 Z" style="stroke-width:2.0;stroke:rgb(84,101,255);stroke-linecap:round;fill:rgb(150,150,150);fill-opacity:0.67;" />
<path d="M2650.113,1626.963 A1157.100,1157.100 40.000 0,1 2650.109,1626.999 L2808.745,1644.517 A1316.700,1316.700 0.000 0,0 2808.750,1644.475 Z" style="stroke-width:2.0;stroke:rgb(84,101,255);stroke-linecap:round;fill:rgb(150,150,150);fill-opacity:0.67;" />
<path d="M2644.262,1671.886 A1157.100,1157.100 40.000 0,1 2644.257,1671.922 L2802.085,1695.636 A1316.700,1316.700 0.000 0,0 2802.091,1695.594 Z" style="stroke-width:2.0;stroke:rgb(215,38,56);stroke-linecap:round;fill:rgb(150,150,150);fill-opacity:0.67;" />
<path d="M2641.277,1690.699 A1157.100,1157.100 40.000 0,1 2641.271,1690.736 L2798.688,1717.044 A1316.700,1316.700 0.000 0,0 2798.695,1717.003 Z" style="stroke-width:2.0;stroke:rgb(215,38,56);stroke-linecap:round;fill:rgb(150,150,150);fill-opacity:0.67;" />
<path d="M2530.251,2026.748 A1157.100,1157.100 40.000 0,1 2530.234,2026.781 L2672.335,2099.441 A1316.700,1316.700 0.000 0,0 2672.354,2099.403 Z" style="stroke-width:2.0;stroke:rgb(84,101,255);stroke-linecap:round;fill:rgb(150,150,150);fill-opacity:0.67;" />
<path d="M2363.054,2270.726 A1157.100,1157.100 40.000 0,1 2363.029,2270.754 L2482.068,2377.065 A1316.700,1316.700 0.000 0,0 2482.095,2377.033 Z" style="stroke-width:2.0;stroke:rgb(84,101,255);stroke-linecap:round;fill:rgb(150,150,150);fill-opacity:0.67;" />
<path d="M2345.595,2289.842 A1157.100,1157.100 40.000 0,1 2345.570,2289.868 L2462.200,2398.816 A1316.700,1316.700 0.000 0,0 2462.229,2398.785 Z" style="stroke-width:2.0;stroke:rgb(84,101,255);stroke-linecap:round;fill:rgb(150,150,150);fill-opacity:0.67;" />
<path d="M2316.456,2319.927 A1157.100,1157.100 40.000 0,1 2316.430,2319.953 L2429.041,2433.050 A1316.700,1316.700 0.000 0,0 2429.071,2433.020 Z" style="stroke-width:2.0;stroke:rgb(84,101,255);stroke-linecap:round;fill:rgb(150,150,150);fill-opacity:0.67;" />
<path d="M2229.623,2398.071 A1157.100,1157.100 40.000 0,1 2229.594,2398.094 L2330.228,2521.969 A1316.700,1316.700 0.000 0,0 2330.261,2521.942 Z" style="stroke-width:2.0;stroke:rgb(84,101,255);stroke-linecap:round;fill:rgb(150,150,150);fill-opacity:0.67;" />
<path d="M2113.247,2481.228 A1157.100,1157.100 40.000 0,1 2113.216,2481.247 L2197.798,2616.592 A1316.700,1316.700 0.000 0,0 2197.833,2616.570 Z" style="stroke-width:2.0;stroke:rgb(84,101,255);stroke-linecap:round;fill:rgb(150,150,150);fill-opacity:0.67;" />
<path d="M2078.641,2502.026 A1157.100,1157.100 40.000 0,1 2078.609,2502.044 L2158.417,2640.257 A1316.700,1316.700 0.000 0,0 2158.453,2640.236 Z" style="stroke-width:2.0;stroke:rgb(84,101,255);stroke-linecap:round;fill:rgb(150,150,150);fill-opacity:0.67;" />
<path d="M2076.155,2503.457 A1157.100,1157.100 40.000 0,1 2076.123,2503.475 L2155.588,2641.886 A1316.700,1316.700 0.000 0,0 2155.624,2641.865 Z" style="stroke-width:2.0;stroke:rgb(84,101,255);stroke-linecap:round;fill:rgb(150,150,150);fill-opacity:0.67;" />
<path d="M2048.031,2519.089 A1157.100,1157.100 40.000 0,1 2047.999,2519.106 L2123.585,2659.673 A1316.700,1316.700 0.000 0,0 2123.622,2659.653 Z" style="stroke-width:2.0;stroke:rgb(215,38,56);stroke-linecap:round;fill:rgb(150,150,150);fill-opacity:0.67;" />
<path d="M2006.761,2540.228 A1157.100,1157.100 40.000 0,1 2006.728,2540.244 L2076.621,2683.726 A1316.700,1316.700 0.000 0,0 2076.659,2683.707 Z" style="stroke-width:2.0;stroke:rgb(84,101,255);stroke-linecap:round;fill:rgb(150,150,150);fill-opacity:0.67;" />
<path d="M1915.402,2579.964 A1157.100,1157.100 40.000 0,1 1915.368,2579.977 L1972.660,2728.939 A1316.700,1316.700 0.000 0,0 1972.699,2728.924 Z" style="stroke-width:2.0;stroke:rgb(84,101,255);stroke-linecap:round;fill:rgb(150,150,150);fill-opacity:0.67;" />
<path d="M1759.709,2627.578 A1157.100,1157.100 40.000 0,1 1759.674,2627.586 L1795.491,2783.115 A1316.700,1316.700 0.000 0,0 1795.531,2783.106 Z" style="stroke-width:2.0;stroke:rgb(84,101,255);stroke-linecap:round;fill:rgb(150,150,150);fill-opacity:0.67;" />
<path d="M1640.022,2648.597 A1157.100,1157.100 40.000 0,1 1639.986,2648.601 L1659.294,2807.029 A1316.700,1316.700 0.000 0,0 1659.336,2807.024 Z" style="stroke-width:2.0;stroke:rgb(84,101,255);stroke-linecap:round;fill:rgb(150,150,150);fill-opacity:0.67;" />
<path d="M799.956,2421.314 A1157.100,1157.100 40.000 0,1 799.927,2421.292 L703.365,2548.366 A1316.700,1316.700 0.000 0,0 703.398,2548.392 Z" style="stroke-width:2.0;stroke:rgb(215,38,56);stroke-linecap:round;fill:rgb(150,150,150);fill-opacity:0.67;" />
<path d="M742.181,2374.409 A1157.100,1157.100 40.000 0,1 742.154,2374.385 L637.623,2494.990 A1316.700,1316.700 0.000 0,0 637.655,2495.017 Z" style="stroke-width:2.0;stroke:rgb(84,101,255);stroke-linecap:round;fill:rgb(150,150,150);fill-opacity:0.67;" />
<path d="M667.216,2303.338 A1157.100,1157.100 40.000 0,1 667.191,2303.311 L552.320,2414.113 A1316.700,1316.700 0.000 0,0 552.349,2414.143 Z" style="stroke-width:2.0;stroke:rgb(84,101,255);stroke-linecap:round;fill:rgb(150,150,150);fill-opacity:0.67;" />
<path d="M653.452,2288.820 A1157.100,1157.100 40.000 0,1 653.427,2288.794 L536.659,2397.593 A1316.700,1316.700 0.000 0,0 536.687,2397.623 Z" style="stroke-width:2.0;stroke:rgb(84,101,255);stroke-linecap:round;fill:rgb(150,150,150);fill-opacity:0.67;" />
<path d="M639.180,2273.220 A1157.100,1157.100 40.000 0,1 639.155,2273.192 L520.418,2379.840 A1316.700,1316.700 0.000 0,0 520.446,2379.871 Z" style="stroke-width:2.0;stroke:rgb(255,179,15);stroke-linecap:round;fill:rgb(150,150,150);fill-opacity:0.67;" />
<path d="M342.911,1495.018 A1157.100,1157.100 40.000 0,1 342.911,1494.981 L183.312,1494.289 A1316.700,1316.700 0.000 0,0 183.312,1494.331 Z" style="stroke-width:2.0;stroke:rgb(215,38,56);stroke-linecap:round;fill:rgb(150,150,150);fill-opacity:0.67;" />
<path d="M345.708,1419.439 A1157.100,1157.100 40.000 0,1 345.710,1419.402 L186.498,1408.285 A1316.700,1316.700 0.000 0,0 186.495,1408.327 Z" style="stroke-width:2.0;stroke:rgb(84,101,255);stroke-linecap:round;fill:rgb(150,150,150);fill-opacity:0.67;" />
<path d="M375.775,1226.140 A1157.100,1157.100 40.000 0,1 375.784,1226.104 L220.720,1188.325 A1316.700,1316.700 0.000 0,0 220.710,1188.366 Z" style="stroke-width:2.0;stroke:rgb(215,38,56);stroke-linecap:round;fill:rgb(150,150,150);fill-opacity:0.67;" />
<path d="M455.027,1003.098 A1157.100,1157.100 40.000 0,1 455.043,1003.064 L310.911,934.522 A1316.700,1316.700 0.000 0,0 310.893,934.559 Z" style="stroke-width:2.0;stroke:rgb(215,38,56);stroke-linecap:round;fill:rgb(150,150,150);fill-opacity:0.67;" />
<path d="M456.421,1000.177 A1157.100,1157.100 40.000 0,1 456.437,1000.144 L312.497,931.198 A1316.700,1316.700 0.000 0,0 312.479,931.236 Z" style="stroke-width:2.0;stroke:rgb(215,38,56);stroke-linecap:round;fill:rgb(150,150,150);fill-opacity:0.67;" />
<path d="M499.402,918.894 A1157.100,1157.100 40.000 0,1 499.420,918.862 L361.410,838.705 A1316.700,1316.700 0.000 0,0 361.388,838.742 Z" style="stroke-width:2.0;stroke:rgb(215,38,56);stroke-linecap:round;fill:rgb(150,150,150);fill-opacity:0.67;" />
<path d="M565.473,817.695 A1157.100,1157.100 40.000 0,1 565.495,817.666 L436.597,723.551 A1316.700,1316.700 0.000 0,0 436.573,723.584 Z" style="stroke-width:2.0;stroke:rgb(90,255,21);stroke-linecap:round;fill:rgb(150,150,150);fill-opacity:0.67;" />
<path d="M614.050,755.707 A1157.100,1157.100 40.000 0,1 614.073,755.679 L491.876,653.014 A1316.700,1316.700 0.000 0,0 491.850,653.046 Z" style="stroke-width:2.0;stroke:rgb(84,101,255);stroke-linecap:round;fill:rgb(150,150,150);fill-opacity:0.67;" />
<path d="M825.873,559.557 A1157.100,1157.100 40.000 0,1 825.903,559.536 L732.924,429.816 A1316.700,1316.700 0.000 0,0 732.890,429.841 Z" style="stroke-width:2.0;stroke:rgb(84,101,255);stroke-linecap:round;fill:rgb(150,150,150);fill-opacity:0.67;" />
<path d="M945.599,484.362 A1157.100,1157.100 40.000 0,1 945.631,484.345 L869.167,344.254 A1316.700,1316.700 0.000 0,0 869.130,344.274 Z" style="stroke-width:2.0;stroke:rgb(84,101,255);stroke-linecap:round;fill:rgb(150,150,150);fill-opacity:0.67;" />
<path d="M995.918,458.471 A1157.100,1157.100 40.000 0,1 995.951,458.455 L926.427,314.794 A1316.700,1316.700 0.000 0,0 926.390,314.812 Z" style="stroke-width:2.0;stroke:rgb(84,101,255);stroke-linecap:round;fill:rgb(150,150,150);fill-opacity:0.67;" />
<path d="M1128.862,404.036 A1157.100,1157.100 40.000 0,1 1128.897,404.024 L1077.710,252.855 A1316.700,1316.700 0.000 0,0 1077.670,252.869 Z" style="stroke-width:2.0;stroke:rgb(84,101,255);stroke-linecap:round;fill:rgb(150,150,150);fill-opacity:0.67;" />
</g>
<path d="M1500.000,170.000 A1330.000,1330.000 40.000 1,1 1479.161,170.163 L1478.848,150.166 A1350.000,1350.000 0.000 1,0 1500.000,150.000 Z" style="stroke-linecap:round;fill:rgb(150,150,150);" />
<text x="1511.3" y="2945.0" font-size="6.5px" font-family="CMUBright-Roman" style="text-anchor:middle;fill:rgb(0,0,0);" transform="rotate(-0.4,1511.3,2945.0)" >1</text>
</g>
<g id="plot0">
<g id="plot0-axis">
</g>
<text x="1546.9" y="405.4" font-size="13.0px" font-family="CMUBright-Roman" style="text-anchor:start;fill:rgb(0,0,0);" transform="rotate(272.2,1546.9,405.4)" >OPG001</text>
<text x="1582.4" y="407.5" font-size="13.0px" font-family="CMUBright-Roman" style="text-anchor:start;fill:rgb(0,0,0);" transform="rotate(274.1,1582.4,407.5)" >OPG002</text>
<text x="1634.3" y="412.7" font-size="13.0px" font-family="CMUBright-Roman" style="text-anchor:start;fill:rgb(0,0,0);" transform="rotate(276.8,1634.3,412.7)" >OPG003</text>
<text x="1695.4" y="422.0" font-size="13.0px" font-family="CMUBright-Roman" style="text-anchor:start;fill:rgb(0,0,0);" transform="rotate(280.0,1695.4,422.0)" >OPG015</text>
<text x="1773.4" y="439.1" font-size="13.0px" font-family="CMUBright-Roman" style="text-anchor:start;fill:rgb(0,0,0);" transform="rotate(284.2,1773.4,439.1)" >OPG019</text>
<text x="1845.5" y="460.3" font-size="13.0px" font-family="CMUBright-Roman" style="text-anchor:start;fill:rgb(0,0,0);" transform="rotate(288.1,1845.5,460.3)" >OPG021</text>
<text x="1869.1" y="468.4" font-size="13.0px" font-family="CMUBright-Roman" style="text-anchor:start;fill:rgb(0,0,0);" transform="rotate(289.4,1869.1,468.4)" >OPG022</text>
<text x="1909.5" y="483.8" font-size="13.0px" font-family="CMUBright-Roman" style="text-anchor:start;fill:rgb(0,0,0);" transform="rotate(291.7,1909.5,483.8)" >OPG023</text>
<text x="1948.6" y="500.5" font-size="13.0px" font-family="CMUBright-Roman" style="text-anchor:start;fill:rgb(0,0,0);" transform="rotate(293.9,1948.6,500.5)" >OPG024</text>
<text x="1986.1" y="518.1" font-size="13.0px" font-family="CMUBright-Roman" style="text-anchor:start;fill:rgb(0,0,0);" transform="rotate(296.1,1986.1,518.1)" >OPG025</text>
<text x="2042.3" y="548.0" font-size="13.0px" font-family="CMUBright-Roman" style="text-anchor:start;fill:rgb(0,0,0);" transform="rotate(299.4,2042.3,548.0)" >OPG027</text>
<text x="2062.9" y="560.1" font-size="13.0px" font-family="CMUBright-Roman" style="text-anchor:start;fill:rgb(0,0,0);" transform="rotate(300.7,2062.9,560.1)" >OPG029</text>
<text x="2083.3" y="572.6" font-size="13.0px" font-family="CMUBright-Roman" style="text-anchor:start;fill:rgb(0,0,0);" transform="rotate(301.9,2083.3,572.6)" >OPG030</text>
<text x="2107.6" y="588.3" font-size="13.0px" font-family="CMUBright-Roman" style="text-anchor:start;fill:rgb(0,0,0);" transform="rotate(303.4,2107.6,588.3)" >OPG031</text>
<text x="2145.6" y="614.8" font-size="13.0px" font-family="CMUBright-Roman" style="text-anchor:start;fill:rgb(0,0,0);" transform="rotate(305.8,2145.6,614.8)" >OPG034</text>
<text x="2160.8" y="626.1" font-size="13.0px" font-family="CMUBright-Roman" style="text-anchor:start;fill:rgb(0,0,0);" transform="rotate(306.8,2160.8,626.1)" >OPG035</text>
<text x="2176.5" y="638.2" font-size="13.0px" font-family="CMUBright-Roman" style="text-anchor:start;fill:rgb(0,0,0);" transform="rotate(307.9,2176.5,638.2)" >OPG036</text>
<text x="2202.8" y="659.5" font-size="13.0px" font-family="CMUBright-Roman" style="text-anchor:start;fill:rgb(0,0,0);" transform="rotate(309.6,2202.8,659.5)" >OPG037</text>
<text x="2230.7" y="683.6" font-size="13.0px" font-family="CMUBright-Roman" style="text-anchor:start;fill:rgb(0,0,0);" transform="rotate(311.6,2230.7,683.6)" >OPG038</text>
<text x="2252.8" y="704.0" font-size="13.0px" font-family="CMUBright-Roman" style="text-anchor:start;fill:rgb(0,0,0);" transform="rotate(313.1,2252.8,704.0)" >OPG039</text>
<text x="2283.1" y="733.8" font-size="13.0px" font-family="CMUBright-Roman" style="text-anchor:start;fill:rgb(0,0,0);" transform="rotate(315.4,2283.1,733.8)" >OPG040</text>
<text x="2319.8" y="773.2" font-size="13.0px" font-family="CMUBright-Roman" style="text-anchor:start;fill:rgb(0,0,0);" transform="rotate(318.2,2319.8,773.2)" >OPG042</text>
<text x="2344.3" y="801.8" font-size="13.0px" font-family="CMUBright-Roman" style="text-anchor:start;fill:rgb(0,0,0);" transform="rotate(320.1,2344.3,801.8)" >OPG043</text>
<text x="2361.2" y="822.8" font-size="13.0px" font-family="CMUBright-Roman" style="text-anchor:start;fill:rgb(0,0,0);" transform="rotate(321.6,2361.2,822.8)" >OPG044</text>
<text x="2374.3" y="839.8" font-size="13.0px" font-family="CMUBright-Roman" style="text-anchor:start;fill:rgb(0,0,0);" transform="rotate(322.7,2374.3,839.8)" >OPG045</text>
<text x="2386.1" y="855.7" font-size="13.0px" font-family="CMUBright-Roman" style="text-anchor:start;fill:rgb(0,0,0);" transform="rotate(323.7,2386.1,855.7)" >OPG046</text>
<text x="2405.5" y="883.3" font-size="13.0px" font-family="CMUBright-Roman" style="text-anchor:start;fill:rgb(0,0,0);" transform="rotate(325.5,2405.5,883.3)" >OPG047</text>
<text x="2428.7" y="918.7" font-size="13.0px" font-family="CMUBright-Roman" style="text-anchor:start;fill:rgb(0,0,0);" transform="rotate(327.7,2428.7,918.7)" >OPG048</text>
<text x="2446.5" y="948.2" font-size="13.0px" font-family="CMUBright-Roman" style="text-anchor:start;fill:rgb(0,0,0);" transform="rotate(329.5,2446.5,948.2)" >OPG049</text>
<text x="2457.2" y="967.0" font-size="13.0px" font-family="CMUBright-Roman" style="text-anchor:start;fill:rgb(0,0,0);" transform="rotate(330.6,2457.2,967.0)" >OPG050</text>
<text x="2467.2" y="985.4" font-size="13.0px" font-family="CMUBright-Roman" style="text-anchor:start;fill:rgb(0,0,0);" transform="rotate(331.7,2467.2,985.4)" >OPG052</text>
<text x="2474.9" y="1000.0" font-size="13.0px" font-family="CMUBright-Roman" style="text-anchor:start;fill:rgb(0,0,0);" transform="rotate(332.6,2474.9,1000.0)" >OPG053</text>
<text x="2489.7" y="1030.2" font-size="13.0px" font-family="CMUBright-Roman" style="text-anchor:start;fill:rgb(0,0,0);" transform="rotate(334.3,2489.7,1030.2)" >OPG054</text>
<text x="2507.1" y="1068.7" font-size="13.0px" font-family="CMUBright-Roman" style="text-anchor:start;fill:rgb(0,0,0);" transform="rotate(336.6,2507.1,1068.7)" >OPG055</text>
<text x="2526.9" y="1118.1" font-size="13.0px" font-family="CMUBright-Roman" style="text-anchor:start;fill:rgb(0,0,0);" transform="rotate(339.3,2526.9,1118.1)" >OPG056</text>
<text x="2544.5" y="1169.4" font-size="13.0px" font-family="CMUBright-Roman" style="text-anchor:start;fill:rgb(0,0,0);" transform="rotate(342.2,2544.5,1169.4)" >OPG057</text>
<text x="2551.5" y="1192.3" font-size="13.0px" font-family="CMUBright-Roman" style="text-anchor:start;fill:rgb(0,0,0);" transform="rotate(343.4,2551.5,1192.3)" >OPG058</text>
<text x="2557.4" y="1213.0" font-size="13.0px" font-family="CMUBright-Roman" style="text-anchor:start;fill:rgb(0,0,0);" transform="rotate(344.6,2557.4,1213.0)" >OPG060</text>
<text x="2562.6" y="1233.0" font-size="13.0px" font-family="CMUBright-Roman" style="text-anchor:start;fill:rgb(0,0,0);" transform="rotate(345.6,2562.6,1233.0)" >OPG061</text>
<text x="2567.2" y="1252.1" font-size="13.0px" font-family="CMUBright-Roman" style="text-anchor:start;fill:rgb(0,0,0);" transform="rotate(346.7,2567.2,1252.1)" >OPG062</text>
<text x="2573.6" y="1281.6" font-size="13.0px" font-family="CMUBright-Roman" style="text-anchor:start;fill:rgb(0,0,0);" transform="rotate(348.2,2573.6,1281.6)" >OPG063</text>
<text x="2584.5" y="1344.2" font-size="13.0px" font-family="CMUBright-Roman" style="text-anchor:start;fill:rgb(0,0,0);" transform="rotate(351.6,2584.5,1344.2)" >OPG064</text>
<text x="2590.5" y="1394.7" font-size="13.0px" font-family="CMUBright-Roman" style="text-anchor:start;fill:rgb(0,0,0);" transform="rotate(354.2,2590.5,1394.7)" >OPG065</text>
<text x="2592.8" y="1421.9" font-size="13.0px" font-family="CMUBright-Roman" style="text-anchor:start;fill:rgb(0,0,0);" transform="rotate(355.7,2592.8,1421.9)" >OPG066</text>
<text x="2595.6" y="1492.0" font-size="13.0px" font-family="CMUBright-Roman" style="text-anchor:start;fill:rgb(0,0,0);" transform="rotate(359.3,2595.6,1492.0)" >OPG068</text>
<text x="2595.1" y="1533.2" font-size="13.0px" font-family="CMUBright-Roman" style="text-anchor:start;fill:rgb(0,0,0);" transform="rotate(1.5,2595.1,1533.2)" >OPG069</text>
<text x="2594.0" y="1559.8" font-size="13.0px" font-family="CMUBright-Roman" style="text-anchor:start;fill:rgb(0,0,0);" transform="rotate(2.9,2594.0,1559.8)" >OPG070</text>
<text x="2588.3" y="1626.7" font-size="13.0px" font-family="CMUBright-Roman" style="text-anchor:start;fill:rgb(0,0,0);" transform="rotate(6.4,2588.3,1626.7)" >OPG071</text>
<text x="2579.9" y="1684.7" font-size="13.0px" font-family="CMUBright-Roman" style="text-anchor:start;fill:rgb(0,0,0);" transform="rotate(9.4,2579.9,1684.7)" >OPG072</text>
<text x="2577.9" y="1696.2" font-size="13.0px" font-family="CMUBright-Roman" style="text-anchor:start;fill:rgb(0,0,0);" transform="rotate(10.1,2577.9,1696.2)" >OPG073</text>
<text x="2569.8" y="1736.4" font-size="13.0px" font-family="CMUBright-Roman" style="text-anchor:start;fill:rgb(0,0,0);" transform="rotate(12.2,2569.8,1736.4)" >OPG074</text>
<text x="2559.9" y="1777.3" font-size="13.0px" font-family="CMUBright-Roman" style="text-anchor:start;fill:rgb(0,0,0);" transform="rotate(14.4,2559.9,1777.3)" >OPG075</text>
<text x="2552.7" y="1803.5" font-size="13.0px" font-family="CMUBright-Roman" style="text-anchor:start;fill:rgb(0,0,0);" transform="rotate(15.8,2552.7,1803.5)" >OPG077</text>
<text x="2546.9" y="1823.1" font-size="13.0px" font-family="CMUBright-Roman" style="text-anchor:start;fill:rgb(0,0,0);" transform="rotate(16.9,2546.9,1823.1)" >OPG078</text>
<text x="2541.4" y="1840.2" font-size="13.0px" font-family="CMUBright-Roman" style="text-anchor:start;fill:rgb(0,0,0);" transform="rotate(17.8,2541.4,1840.2)" >OPG079</text>
<text x="2522.3" y="1894.1" font-size="13.0px" font-family="CMUBright-Roman" style="text-anchor:start;fill:rgb(0,0,0);" transform="rotate(20.8,2522.3,1894.1)" >OPG080</text>
<text x="2505.0" y="1936.2" font-size="13.0px" font-family="CMUBright-Roman" style="text-anchor:start;fill:rgb(0,0,0);" transform="rotate(23.2,2505.0,1936.2)" >OPG081</text>
<text x="2494.9" y="1958.8" font-size="13.0px" font-family="CMUBright-Roman" style="text-anchor:start;fill:rgb(0,0,0);" transform="rotate(24.5,2494.9,1958.8)" >OPG082</text>
<text x="2476.7" y="1996.5" font-size="13.0px" font-family="CMUBright-Roman" style="text-anchor:start;fill:rgb(0,0,0);" transform="rotate(26.7,2476.7,1996.5)" >OPG083</text>
<text x="2449.2" y="2047.2" font-size="13.0px" font-family="CMUBright-Roman" style="text-anchor:start;fill:rgb(0,0,0);" transform="rotate(29.7,2449.2,2047.2)" >OPG084</text>
<text x="2414.3" y="2103.7" font-size="13.0px" font-family="CMUBright-Roman" style="text-anchor:start;fill:rgb(0,0,0);" transform="rotate(33.2,2414.3,2103.7)" >OPG085</text>
<text x="2393.6" y="2133.9" font-size="13.0px" font-family="CMUBright-Roman" style="text-anchor:start;fill:rgb(0,0,0);" transform="rotate(35.1,2393.6,2133.9)" >OPG086</text>
<text x="2383.6" y="2147.8" font-size="13.0px" font-family="CMUBright-Roman" style="text-anchor:start;fill:rgb(0,0,0);" transform="rotate(36.0,2383.6,2147.8)" >OPG087</text>
<text x="2373.4" y="2161.4" font-size="13.0px" font-family="CMUBright-Roman" style="text-anchor:start;fill:rgb(0,0,0);" transform="rotate(36.9,2373.4,2161.4)" >OPG088</text>
<text x="2355.4" y="2184.5" font-size="13.0px" font-family="CMUBright-Roman" style="text-anchor:start;fill:rgb(0,0,0);" transform="rotate(38.4,2355.4,2184.5)" >OPG089</text>
<text x="2338.7" y="2204.9" font-size="13.0px" font-family="CMUBright-Roman" style="text-anchor:start;fill:rgb(0,0,0);" transform="rotate(39.8,2338.7,2204.9)" >OPG090</text>
<text x="2331.0" y="2214.0" font-size="13.0px" font-family="CMUBright-Roman" style="text-anchor:start;fill:rgb(0,0,0);" transform="rotate(40.4,2331.0,2214.0)" >OPG091</text>
<text x="2313.2" y="2234.2" font-size="13.0px" font-family="CMUBright-Roman" style="text-anchor:start;fill:rgb(0,0,0);" transform="rotate(41.8,2313.2,2234.2)" >OPG092</text>
<text x="2290.0" y="2259.1" font-size="13.0px" font-family="CMUBright-Roman" style="text-anchor:start;fill:rgb(0,0,0);" transform="rotate(43.6,2290.0,2259.1)" >OPG093</text>
<text x="2267.4" y="2282.0" font-size="13.0px" font-family="CMUBright-Roman" style="text-anchor:start;fill:rgb(0,0,0);" transform="rotate(45.3,2267.4,2282.0)" >OPG094</text>
<text x="2245.0" y="2303.3" font-size="13.0px" font-family="CMUBright-Roman" style="text-anchor:start;fill:rgb(0,0,0);" transform="rotate(46.9,2245.0,2303.3)" >OPG095</text>
<text x="2230.9" y="2316.1" font-size="13.0px" font-family="CMUBright-Roman" style="text-anchor:start;fill:rgb(0,0,0);" transform="rotate(47.9,2230.9,2316.1)" >OPG096</text>
<text x="2214.4" y="2330.6" font-size="13.0px" font-family="CMUBright-Roman" style="text-anchor:start;fill:rgb(0,0,0);" transform="rotate(49.0,2214.4,2330.6)" >OPG097</text>
<text x="2189.8" y="2351.2" font-size="13.0px" font-family="CMUBright-Roman" style="text-anchor:start;fill:rgb(0,0,0);" transform="rotate(50.7,2189.8,2351.2)" >OPG098</text>
<text x="2174.0" y="2363.7" font-size="13.0px" font-family="CMUBright-Roman" style="text-anchor:start;fill:rgb(0,0,0);" transform="rotate(51.8,2174.0,2363.7)" >OPG099</text>
<text x="2163.6" y="2371.8" font-size="13.0px" font-family="CMUBright-Roman" style="text-anchor:start;fill:rgb(0,0,0);" transform="rotate(52.5,2163.6,2371.8)" >OPG100</text>
<text x="2149.2" y="2382.6" font-size="13.0px" font-family="CMUBright-Roman" style="text-anchor:start;fill:rgb(0,0,0);" transform="rotate(53.4,2149.2,2382.6)" >OPG101</text>
<text x="2125.6" y="2399.4" font-size="13.0px" font-family="CMUBright-Roman" style="text-anchor:start;fill:rgb(0,0,0);" transform="rotate(54.9,2125.6,2399.4)" >OPG102</text>
<text x="2105.6" y="2413.0" font-size="13.0px" font-family="CMUBright-Roman" style="text-anchor:start;fill:rgb(0,0,0);" transform="rotate(56.2,2105.6,2413.0)" >OPG103</text>
<text x="2089.9" y="2423.2" font-size="13.0px" font-family="CMUBright-Roman" style="text-anchor:start;fill:rgb(0,0,0);" transform="rotate(57.2,2089.9,2423.2)" >OPG104</text>
<text x="2022.8" y="2462.8" font-size="13.0px" font-family="CMUBright-Roman" style="text-anchor:start;fill:rgb(0,0,0);" transform="rotate(61.2,2022.8,2462.8)" >OPG105</text>
<text x="1954.7" y="2496.8" font-size="13.0px" font-family="CMUBright-Roman" style="text-anchor:start;fill:rgb(0,0,0);" transform="rotate(65.2,1954.7,2496.8)" >OPG106</text>
<text x="1937.1" y="2504.6" font-size="13.0px" font-family="CMUBright-Roman" style="text-anchor:start;fill:rgb(0,0,0);" transform="rotate(66.2,1937.1,2504.6)" >OPG107</text>
<text x="1912.2" y="2515.1" font-size="13.0px" font-family="CMUBright-Roman" style="text-anchor:start;fill:rgb(0,0,0);" transform="rotate(67.6,1912.2,2515.1)" >OPG108</text>
<text x="1857.4" y="2535.7" font-size="13.0px" font-family="CMUBright-Roman" style="text-anchor:start;fill:rgb(0,0,0);" transform="rotate(70.7,1857.4,2535.7)" >OPG109</text>
<text x="1801.1" y="2553.4" font-size="13.0px" font-family="CMUBright-Roman" style="text-anchor:start;fill:rgb(0,0,0);" transform="rotate(73.8,1801.1,2553.4)" >OPG110</text>
<text x="1774.6" y="2560.6" font-size="13.0px" font-family="CMUBright-Roman" style="text-anchor:start;fill:rgb(0,0,0);" transform="rotate(75.2,1774.6,2560.6)" >OPG111</text>
<text x="1749.9" y="2566.7" font-size="13.0px" font-family="CMUBright-Roman" style="text-anchor:start;fill:rgb(0,0,0);" transform="rotate(76.6,1749.9,2566.7)" >OPG112</text>
<text x="1697.7" y="2577.6" font-size="13.0px" font-family="CMUBright-Roman" style="text-anchor:start;fill:rgb(0,0,0);" transform="rotate(79.3,1697.7,2577.6)" >OPG113</text>
<text x="1647.9" y="2585.6" font-size="13.0px" font-family="CMUBright-Roman" style="text-anchor:start;fill:rgb(0,0,0);" transform="rotate(82.0,1647.9,2585.6)" >OPG114</text>
<text x="1628.4" y="2588.0" font-size="13.0px" font-family="CMUBright-Roman" style="text-anchor:start;fill:rgb(0,0,0);" transform="rotate(83.0,1628.4,2588.0)" >OPG115</text>
<text x="1605.0" y="2590.6" font-size="13.0px" font-family="CMUBright-Roman" style="text-anchor:start;fill:rgb(0,0,0);" transform="rotate(84.2,1605.0,2590.6)" >OPG116</text>
<text x="1551.5" y="2594.4" font-size="13.0px" font-family="CMUBright-Roman" style="text-anchor:start;fill:rgb(0,0,0);" transform="rotate(87.0,1551.5,2594.4)" >OPG117</text>
<text x="1485.8" y="2595.5" font-size="13.0px" font-family="CMUBright-Roman" style="text-anchor:end;fill:rgb(0,0,0);" transform="rotate(-89.0,1485.8,2595.5)" >OPG118</text>
<text x="1443.2" y="2594.1" font-size="13.0px" font-family="CMUBright-Roman" style="text-anchor:end;fill:rgb(0,0,0);" transform="rotate(-86.8,1443.2,2594.1)" >OPG119</text>
<text x="1420.1" y="2592.7" font-size="13.0px" font-family="CMUBright-Roman" style="text-anchor:end;fill:rgb(0,0,0);" transform="rotate(-85.6,1420.1,2592.7)" >OPG120</text>
<text x="1391.7" y="2590.2" font-size="13.0px" font-family="CMUBright-Roman" style="text-anchor:end;fill:rgb(0,0,0);" transform="rotate(-84.1,1391.7,2590.2)" >OPG121</text>
<text x="1367.8" y="2587.6" font-size="13.0px" font-family="CMUBright-Roman" style="text-anchor:end;fill:rgb(0,0,0);" transform="rotate(-82.8,1367.8,2587.6)" >OPG122</text>
<text x="1322.3" y="2581.1" font-size="13.0px" font-family="CMUBright-Roman" style="text-anchor:end;fill:rgb(0,0,0);" transform="rotate(-80.4,1322.3,2581.1)" >OPG123</text>
<text x="1273.9" y="2572.0" font-size="13.0px" font-family="CMUBright-Roman" style="text-anchor:end;fill:rgb(0,0,0);" transform="rotate(-77.8,1273.9,2572.0)" >OPG124</text>
<text x="1230.1" y="2561.8" font-size="13.0px" font-family="CMUBright-Roman" style="text-anchor:end;fill:rgb(0,0,0);" transform="rotate(-75.5,1230.1,2561.8)" >OPG125</text>
<text x="1193.9" y="2552.0" font-size="13.0px" font-family="CMUBright-Roman" style="text-anchor:end;fill:rgb(0,0,0);" transform="rotate(-73.5,1193.9,2552.0)" >OPG126</text>
<text x="1174.5" y="2546.1" font-size="13.0px" font-family="CMUBright-Roman" style="text-anchor:end;fill:rgb(0,0,0);" transform="rotate(-72.5,1174.5,2546.1)" >OPG127</text>
<text x="1159.5" y="2541.3" font-size="13.0px" font-family="CMUBright-Roman" style="text-anchor:end;fill:rgb(0,0,0);" transform="rotate(-71.6,1159.5,2541.3)" >OPG128</text>
<text x="1123.4" y="2528.8" font-size="13.0px" font-family="CMUBright-Roman" style="text-anchor:end;fill:rgb(0,0,0);" transform="rotate(-69.6,1123.4,2528.8)" >OPG129</text>
<text x="1076.6" y="2510.5" font-size="13.0px" font-family="CMUBright-Roman" style="text-anchor:end;fill:rgb(0,0,0);" transform="rotate(-67.0,1076.6,2510.5)" >OPG130</text>
<text x="1054.1" y="2500.8" font-size="13.0px" font-family="CMUBright-Roman" style="text-anchor:end;fill:rgb(0,0,0);" transform="rotate(-65.7,1054.1,2500.8)" >OPG131</text>
<text x="1028.9" y="2489.1" font-size="13.0px" font-family="CMUBright-Roman" style="text-anchor:end;fill:rgb(0,0,0);" transform="rotate(-64.3,1028.9,2489.1)" >OPG132</text>
<text x="977.7" y="2463.1" font-size="13.0px" font-family="CMUBright-Roman" style="text-anchor:end;fill:rgb(0,0,0);" transform="rotate(-61.3,977.7,2463.1)" >OPG133</text>
<text x="930.7" y="2436.1" font-size="13.0px" font-family="CMUBright-Roman" style="text-anchor:end;fill:rgb(0,0,0);" transform="rotate(-58.4,930.7,2436.1)" >OPG134</text>
<text x="913.8" y="2425.6" font-size="13.0px" font-family="CMUBright-Roman" style="text-anchor:end;fill:rgb(0,0,0);" transform="rotate(-57.4,913.8,2425.6)" >OPG135</text>
<text x="870.6" y="2396.8" font-size="13.0px" font-family="CMUBright-Roman" style="text-anchor:end;fill:rgb(0,0,0);" transform="rotate(-54.7,870.6,2396.8)" >OPG136</text>
<text x="819.6" y="2358.7" font-size="13.0px" font-family="CMUBright-Roman" style="text-anchor:end;fill:rgb(0,0,0);" transform="rotate(-51.3,819.6,2358.7)" >OPG137</text>
<text x="798.9" y="2341.9" font-size="13.0px" font-family="CMUBright-Roman" style="text-anchor:end;fill:rgb(0,0,0);" transform="rotate(-49.9,798.9,2341.9)" >OPG138</text>
<text x="787.8" y="2332.5" font-size="13.0px" font-family="CMUBright-Roman" style="text-anchor:end;fill:rgb(0,0,0);" transform="rotate(-49.2,787.8,2332.5)" >OPG139</text>
<text x="778.6" y="2324.6" font-size="13.0px" font-family="CMUBright-Roman" style="text-anchor:end;fill:rgb(0,0,0);" transform="rotate(-48.6,778.6,2324.6)" >OPG140</text>
<text x="767.0" y="2314.3" font-size="13.0px" font-family="CMUBright-Roman" style="text-anchor:end;fill:rgb(0,0,0);" transform="rotate(-47.7,767.0,2314.3)" >OPG142</text>
<text x="749.3" y="2298.0" font-size="13.0px" font-family="CMUBright-Roman" style="text-anchor:end;fill:rgb(0,0,0);" transform="rotate(-46.5,749.3,2298.0)" >OPG143</text>
<text x="727.3" y="2276.7" font-size="13.0px" font-family="CMUBright-Roman" style="text-anchor:end;fill:rgb(0,0,0);" transform="rotate(-44.9,727.3,2276.7)" >OPG144</text>
<text x="701.6" y="2250.3" font-size="13.0px" font-family="CMUBright-Roman" style="text-anchor:end;fill:rgb(0,0,0);" transform="rotate(-43.0,701.6,2250.3)" >OPG145</text>
<text x="681.9" y="2228.8" font-size="13.0px" font-family="CMUBright-Roman" style="text-anchor:end;fill:rgb(0,0,0);" transform="rotate(-41.4,681.9,2228.8)" >OPG146</text>
<text x="656.9" y="2199.6" font-size="13.0px" font-family="CMUBright-Roman" style="text-anchor:end;fill:rgb(0,0,0);" transform="rotate(-39.4,656.9,2199.6)" >OPG148</text>
<text x="638.3" y="2176.6" font-size="13.0px" font-family="CMUBright-Roman" style="text-anchor:end;fill:rgb(0,0,0);" transform="rotate(-37.9,638.3,2176.6)" >OPG149</text>
<text x="619.8" y="2152.3" font-size="13.0px" font-family="CMUBright-Roman" style="text-anchor:end;fill:rgb(0,0,0);" transform="rotate(-36.3,619.8,2152.3)" >OPG150</text>
<text x="574.1" y="2085.8" font-size="13.0px" font-family="CMUBright-Roman" style="text-anchor:end;fill:rgb(0,0,0);" transform="rotate(-32.1,574.1,2085.8)" >OPG151</text>
<text x="477.0" y="1892.2" font-size="13.0px" font-family="CMUBright-Roman" style="text-anchor:end;fill:rgb(0,0,0);" transform="rotate(-20.7,477.0,1892.2)" >OPG153</text>
<text x="465.3" y="1860.1" font-size="13.0px" font-family="CMUBright-Roman" style="text-anchor:end;fill:rgb(0,0,0);" transform="rotate(-18.9,465.3,1860.1)" >OPG154</text>
<text x="460.9" y="1847.3" font-size="13.0px" font-family="CMUBright-Roman" style="text-anchor:end;fill:rgb(0,0,0);" transform="rotate(-18.2,460.9,1847.3)" >OPG155</text>
<text x="453.6" y="1824.8" font-size="13.0px" font-family="CMUBright-Roman" style="text-anchor:end;fill:rgb(0,0,0);" transform="rotate(-17.0,453.6,1824.8)" >OPG156</text>
<text x="448.2" y="1806.8" font-size="13.0px" font-family="CMUBright-Roman" style="text-anchor:end;fill:rgb(0,0,0);" transform="rotate(-16.0,448.2,1806.8)" >OPG157</text>
<text x="443.5" y="1790.2" font-size="13.0px" font-family="CMUBright-Roman" style="text-anchor:end;fill:rgb(0,0,0);" transform="rotate(-15.1,443.5,1790.2)" >OPG159</text>
<text x="437.9" y="1768.7" font-size="13.0px" font-family="CMUBright-Roman" style="text-anchor:end;fill:rgb(0,0,0);" transform="rotate(-13.9,437.9,1768.7)" >OPG160</text>
<text x="431.8" y="1743.3" font-size="13.0px" font-family="CMUBright-Roman" style="text-anchor:end;fill:rgb(0,0,0);" transform="rotate(-12.6,431.8,1743.3)" >OPG161</text>
<text x="427.8" y="1725.3" font-size="13.0px" font-family="CMUBright-Roman" style="text-anchor:end;fill:rgb(0,0,0);" transform="rotate(-11.6,427.8,1725.3)" >OPG162</text>
<text x="424.0" y="1706.1" font-size="13.0px" font-family="CMUBright-Roman" style="text-anchor:end;fill:rgb(0,0,0);" transform="rotate(-10.6,424.0,1706.1)" >OPG163</text>
<text x="419.9" y="1683.7" font-size="13.0px" font-family="CMUBright-Roman" style="text-anchor:end;fill:rgb(0,0,0);" transform="rotate(-9.4,419.9,1683.7)" >OPG164</text>
<text x="415.6" y="1656.2" font-size="13.0px" font-family="CMUBright-Roman" style="text-anchor:end;fill:rgb(0,0,0);" transform="rotate(-7.9,415.6,1656.2)" >OPG165</text>
<text x="412.9" y="1636.6" font-size="13.0px" font-family="CMUBright-Roman" style="text-anchor:end;fill:rgb(0,0,0);" transform="rotate(-6.9,412.9,1636.6)" >OPG166</text>
<text x="410.9" y="1619.2" font-size="13.0px" font-family="CMUBright-Roman" style="text-anchor:end;fill:rgb(0,0,0);" transform="rotate(-6.0,410.9,1619.2)" >OPG167</text>
<text x="406.6" y="1568.7" font-size="13.0px" font-family="CMUBright-Roman" style="text-anchor:end;fill:rgb(0,0,0);" transform="rotate(-3.3,406.6,1568.7)" >OPG170</text>
<text x="405.2" y="1542.9" font-size="13.0px" font-family="CMUBright-Roman" style="text-anchor:end;fill:rgb(0,0,0);" transform="rotate(-2.0,405.2,1542.9)" >OPG171</text>
<text x="404.7" y="1524.3" font-size="13.0px" font-family="CMUBright-Roman" style="text-anchor:end;fill:rgb(0,0,0);" transform="rotate(-1.0,404.7,1524.3)" >OPG172</text>
<text x="404.4" y="1509.5" font-size="13.0px" font-family="CMUBright-Roman" style="text-anchor:end;fill:rgb(0,0,0);" transform="rotate(-0.2,404.4,1509.5)" >OPG173</text>
<text x="404.5" y="1484.2" font-size="13.0px" font-family="CMUBright-Roman" style="text-anchor:end;fill:rgb(0,0,0);" transform="rotate(1.1,404.5,1484.2)" >OPG174</text>
<text x="405.2" y="1457.9" font-size="13.0px" font-family="CMUBright-Roman" style="text-anchor:end;fill:rgb(0,0,0);" transform="rotate(2.5,405.2,1457.9)" >OPG175</text>
<text x="406.1" y="1439.1" font-size="13.0px" font-family="CMUBright-Roman" style="text-anchor:end;fill:rgb(0,0,0);" transform="rotate(3.4,406.1,1439.1)" >OPG176</text>
<text x="410.8" y="1382.0" font-size="13.0px" font-family="CMUBright-Roman" style="text-anchor:end;fill:rgb(0,0,0);" transform="rotate(6.4,410.8,1382.0)" >OPG178</text>
<text x="418.8" y="1322.8" font-size="13.0px" font-family="CMUBright-Roman" style="text-anchor:end;fill:rgb(0,0,0);" transform="rotate(9.6,418.8,1322.8)" >OPG180</text>
<text x="427.6" y="1275.5" font-size="13.0px" font-family="CMUBright-Roman" style="text-anchor:end;fill:rgb(0,0,0);" transform="rotate(12.1,427.6,1275.5)" >OPG181</text>
<text x="470.3" y="1125.8" font-size="13.0px" font-family="CMUBright-Roman" style="text-anchor:end;fill:rgb(0,0,0);" transform="rotate(20.2,470.3,1125.8)" >OPG185</text>
<text x="491.8" y="1071.1" font-size="13.0px" font-family="CMUBright-Roman" style="text-anchor:end;fill:rgb(0,0,0);" transform="rotate(23.3,491.8,1071.1)" >OPG187</text>
<text x="510.0" y="1030.6" font-size="13.0px" font-family="CMUBright-Roman" style="text-anchor:end;fill:rgb(0,0,0);" transform="rotate(25.6,510.0,1030.6)" >OPG188</text>
<text x="538.9" y="974.1" font-size="13.0px" font-family="CMUBright-Roman" style="text-anchor:end;fill:rgb(0,0,0);" transform="rotate(28.9,538.9,974.1)" >OPG189</text>
<text x="563.7" y="931.1" font-size="13.0px" font-family="CMUBright-Roman" style="text-anchor:end;fill:rgb(0,0,0);" transform="rotate(31.5,563.7,931.1)" >OPG190</text>
<text x="578.7" y="907.1" font-size="13.0px" font-family="CMUBright-Roman" style="text-anchor:end;fill:rgb(0,0,0);" transform="rotate(33.0,578.7,907.1)" >OPG191</text>
<text x="590.0" y="889.9" font-size="13.0px" font-family="CMUBright-Roman" style="text-anchor:end;fill:rgb(0,0,0);" transform="rotate(34.1,590.0,889.9)" >OPG192</text>
<text x="604.4" y="868.9" font-size="13.0px" font-family="CMUBright-Roman" style="text-anchor:end;fill:rgb(0,0,0);" transform="rotate(35.4,604.4,868.9)" >OPG193</text>
<text x="621.3" y="845.6" font-size="13.0px" font-family="CMUBright-Roman" style="text-anchor:end;fill:rgb(0,0,0);" transform="rotate(36.9,621.3,845.6)" >OPG195</text>
<text x="648.2" y="811.0" font-size="13.0px" font-family="CMUBright-Roman" style="text-anchor:end;fill:rgb(0,0,0);" transform="rotate(39.2,648.2,811.0)" >OPG197</text>
<text x="662.4" y="793.8" font-size="13.0px" font-family="CMUBright-Roman" style="text-anchor:end;fill:rgb(0,0,0);" transform="rotate(40.4,662.4,793.8)" >OPG198</text>
<text x="686.3" y="766.4" font-size="13.0px" font-family="CMUBright-Roman" style="text-anchor:end;fill:rgb(0,0,0);" transform="rotate(42.3,686.3,766.4)" >OPG199</text>
<text x="706.8" y="744.2" font-size="13.0px" font-family="CMUBright-Roman" style="text-anchor:end;fill:rgb(0,0,0);" transform="rotate(43.9,706.8,744.2)" >OPG200</text>
<text x="720.9" y="729.7" font-size="13.0px" font-family="CMUBright-Roman" style="text-anchor:end;fill:rgb(0,0,0);" transform="rotate(44.9,720.9,729.7)" >OPG201</text>
<text x="774.1" y="679.4" font-size="13.0px" font-family="CMUBright-Roman" style="text-anchor:end;fill:rgb(0,0,0);" transform="rotate(48.8,774.1,679.4)" >OPG204</text>
<text x="821.6" y="639.7" font-size="13.0px" font-family="CMUBright-Roman" style="text-anchor:end;fill:rgb(0,0,0);" transform="rotate(52.0,821.6,639.7)" >OPG205</text>
<text x="905.6" y="579.7" font-size="13.0px" font-family="CMUBright-Roman" style="text-anchor:end;fill:rgb(0,0,0);" transform="rotate(57.4,905.6,579.7)" >OPG208</text>
<text x="1210.4" y="443.4" font-size="13.0px" font-family="CMUBright-Roman" style="text-anchor:end;fill:rgb(0,0,0);" transform="rotate(74.9,1210.4,443.4)" >OPG005</text>
<text x="1252.5" y="432.7" font-size="13.0px" font-family="CMUBright-Roman" style="text-anchor:end;fill:rgb(0,0,0);" transform="rotate(77.2,1252.5,432.7)" >OPG016</text>
<text x="1287.7" y="425.2" font-size="13.0px" font-family="CMUBright-Roman" style="text-anchor:end;fill:rgb(0,0,0);" transform="rotate(79.1,1287.7,425.2)" >OPG015</text>
<text x="1348.7" y="414.9" font-size="13.0px" font-family="CMUBright-Roman" style="text-anchor:end;fill:rgb(0,0,0);" transform="rotate(82.3,1348.7,414.9)" >OPG003</text>
<text x="1400.5" y="408.9" font-size="13.0px" font-family="CMUBright-Roman" style="text-anchor:end;fill:rgb(0,0,0);" transform="rotate(85.0,1400.5,408.9)" >OPG002</text>
</g>
<defs>
<pattern id="hline-sparse" width="10" height="10" patternTransform="rotate(0 0 0)" patternUnits="userSpaceOnUse"><line x1="0" y1="0" x2="10" y2="0" style="stroke:black;stroke-width:2" /></pattern>
<pattern id="vline" width="10" height="10" patternTransform="rotate(0 0 0)" patternUnits="userSpaceOnUse"><line x1="0" y1="0" x2="0" y2="10" style="stroke:black;stroke-width:5" /></pattern>
<pattern id="vline-sparse" width="10" height="10" patternTransform="rotate(0 0 0)" patternUnits="userSpaceOnUse"><line x1="0" y1="0" x2="0" y2="10" style="stroke:black;stroke-width:2" /></pattern>
<pattern id="checker" width="10" height="10" patternTransform="rotate(45 0 0)" patternUnits="userSpaceOnUse"><line x1="0" y1="0" x2="10" y2="0" style="stroke:black;stroke-width:2" /><line x1="0" y1="0" x2="0" y2="10" style="stroke:black;stroke-width:2" /></pattern>
<pattern id="hline" width="10" height="10" patternTransform="rotate(0 0 0)" patternUnits="userSpaceOnUse"><line x1="0" y1="0" x2="10" y2="0" style="stroke:black;stroke-width:5" /></pattern>
<pattern id="checker" width="10" height="10" patternTransform="rotate(45 0 0)" patternUnits="userSpaceOnUse"><line x1="0" y1="0" x2="10" y2="0" style="stroke:black;stroke-width:5" /><line x1="0" y1="0" x2="0" y2="10" style="stroke:black;stroke-width:4" /></pattern>
</defs>
</svg>
